<?xml version="1.0" encoding="UTF-8" standalone="no"?>
<svg
   xmlns:osb="http://www.openswatchbook.org/uri/2009/osb"
   xmlns:dc="http://purl.org/dc/elements/1.1/"
   xmlns:cc="http://creativecommons.org/ns#"
   xmlns:rdf="http://www.w3.org/1999/02/22-rdf-syntax-ns#"
   xmlns:svg="http://www.w3.org/2000/svg"
   xmlns="http://www.w3.org/2000/svg"
   xmlns:xlink="http://www.w3.org/1999/xlink"
   xmlns:sodipodi="http://sodipodi.sourceforge.net/DTD/sodipodi-0.dtd"
   xmlns:inkscape="http://www.inkscape.org/namespaces/inkscape"
   width="182.26529mm"
   height="85.722069mm"
   viewBox="0 0 182.2653 85.722075"
   version="1.1"
   id="svg8"
   inkscape:version="1.0 (4035a4fb49, 2020-05-01)"
   sodipodi:docname="differential_cross_section.svg">
  <sodipodi:namedview
     inkscape:window-maximized="0"
     inkscape:window-y="128"
     inkscape:window-x="500"
     inkscape:window-height="838"
     inkscape:window-width="1351"
     showgrid="true"
     inkscape:current-layer="layer1"
     inkscape:document-units="mm"
     inkscape:cy="217.20324"
     inkscape:cx="252.3875"
     inkscape:zoom="0.95406467"
     inkscape:pageshadow="2"
     inkscape:pageopacity="0.0"
     borderopacity="1.0"
     bordercolor="#666666"
     pagecolor="#ffffff"
     id="base"
     fit-margin-top="0"
     fit-margin-left="0"
     fit-margin-right="0"
     fit-margin-bottom="0"
     inkscape:document-rotation="0">
    <inkscape:grid
       originy="-57.308908"
       originx="-107.95"
       type="xygrid"
       id="grid3721"
       empspacing="3" />
  </sodipodi:namedview>
  <defs
     id="defs2">
    <marker
       inkscape:stockid="Arrow2Lend"
       orient="auto"
       refY="0"
       refX="0"
       id="marker2465"
       style="overflow:visible"
       inkscape:isstock="true"
       inkscape:collect="always">
      <path
         id="path2463"
         style="fill:#000000;fill-opacity:1;fill-rule:evenodd;stroke:#000000;stroke-width:0.625;stroke-linejoin:round;stroke-opacity:1"
         d="M 8.7185878,4.0337352 -2.2072895,0.01601326 8.7185884,-4.0017078 c -1.7454984,2.3720609 -1.7354408,5.6174519 -6e-7,8.035443 z"
         transform="matrix(-1.1,0,0,-1.1,-1.1,0)"
         inkscape:connector-curvature="0" />
    </marker>
    <marker
       inkscape:stockid="Arrow2Lend"
       orient="auto"
       refY="0"
       refX="0"
       id="marker1924"
       style="overflow:visible"
       inkscape:isstock="true">
      <path
         id="path1922"
         style="fill:#000000;fill-opacity:1;fill-rule:evenodd;stroke:#000000;stroke-width:0.625;stroke-linejoin:round;stroke-opacity:1"
         d="M 8.7185878,4.0337352 -2.2072895,0.01601326 8.7185884,-4.0017078 c -1.7454984,2.3720609 -1.7354408,5.6174519 -6e-7,8.035443 z"
         transform="matrix(-1.1,0,0,-1.1,-1.1,0)"
         inkscape:connector-curvature="0" />
    </marker>
    <linearGradient
       id="linearGradient3213"
       osb:paint="solid">
      <stop
         style="stop-color:#000000;stop-opacity:1;"
         offset="0"
         id="stop3211" />
    </linearGradient>
    <g
       id="g4461">
      <symbol
         overflow="visible"
         id="symbol1723">
        <path
           style="stroke:none"
           d=""
           id="path6414" />
      </symbol>
      <symbol
         overflow="visible"
         id="symbol3394">
        <path
           style="stroke:none"
           d="m 5.15625,-3.71875 c 0.140625,0 0.5,0 0.5,-0.34375 0,-0.234375 -0.21875,-0.234375 -0.390625,-0.234375 h -2.28125 c -1.5,0 -2.609375,1.640625 -2.609375,2.828125 0,0.875 0.59375,1.578125 1.5,1.578125 1.171875,0 2.5,-1.203125 2.5,-2.734375 0,-0.171875 0,-0.65625 -0.3125,-1.09375 z M 1.890625,-0.109375 C 1.390625,-0.109375 1,-0.46875 1,-1.1875 c 0,-0.296875 0.109375,-1.109375 0.46875,-1.703125 0.421875,-0.6875 1.015625,-0.828125 1.359375,-0.828125 0.828125,0 0.90625,0.65625 0.90625,0.96875 0,0.46875 -0.203125,1.28125 -0.53125,1.796875 -0.390625,0.578125 -0.9375,0.84375 -1.3125,0.84375 z m 0,0"
           id="path3953" />
      </symbol>
    </g>
    <g
       id="g9371">
      <symbol
         id="symbol939"
         overflow="visible">
        <path
           id="path1553"
           d=""
           style="stroke:none" />
      </symbol>
      <symbol
         id="symbol673"
         overflow="visible">
        <path
           id="path5248"
           d="m 5.140625,-6.8125 c 0,0 0,-0.109375 -0.125,-0.109375 -0.15625,0 -1.09375,0.09375 -1.265625,0.109375 -0.078125,0.015625 -0.140625,0.0625 -0.140625,0.1875 0,0.125 0.09375,0.125 0.234375,0.125 0.484375,0 0.5,0.0625 0.5,0.171875 L 4.3125,-6.125 3.71875,-3.765625 C 3.53125,-4.140625 3.25,-4.40625 2.796875,-4.40625 c -1.15625,0 -2.390625,1.46875 -2.390625,2.921875 0,0.9375 0.546875,1.59375 1.3125,1.59375 0.203125,0 0.703125,-0.046875 1.296875,-0.75 0.078125,0.421875 0.4375,0.75 0.90625,0.75 0.359375,0 0.578125,-0.234375 0.75,-0.546875 0.15625,-0.359375 0.296875,-0.96875 0.296875,-0.984375 0,-0.109375 -0.09375,-0.109375 -0.125,-0.109375 -0.09375,0 -0.109375,0.046875 -0.140625,0.1875 -0.171875,0.640625 -0.34375,1.234375 -0.75,1.234375 -0.28125,0 -0.296875,-0.265625 -0.296875,-0.453125 0,-0.25 0.015625,-0.3125 0.046875,-0.484375 z m -2.0625,5.625 C 3.015625,-1 3.015625,-0.984375 2.875,-0.8125 2.4375,-0.265625 2.03125,-0.109375 1.75,-0.109375 c -0.5,0 -0.640625,-0.546875 -0.640625,-0.9375 0,-0.5 0.3125,-1.71875 0.546875,-2.1875 0.3125,-0.578125 0.75,-0.953125 1.15625,-0.953125 0.640625,0 0.78125,0.8125 0.78125,0.875 0,0.0625 -0.015625,0.125 -0.03125,0.171875 z m 0,0"
           style="stroke:none" />
      </symbol>
      <symbol
         id="symbol4153"
         overflow="visible">
        <path
           id="path7036"
           d="m 5.15625,-3.71875 c 0.140625,0 0.5,0 0.5,-0.34375 0,-0.234375 -0.21875,-0.234375 -0.390625,-0.234375 h -2.28125 c -1.5,0 -2.609375,1.640625 -2.609375,2.828125 0,0.875 0.59375,1.578125 1.5,1.578125 1.171875,0 2.5,-1.203125 2.5,-2.734375 0,-0.171875 0,-0.65625 -0.3125,-1.09375 z M 1.890625,-0.109375 C 1.390625,-0.109375 1,-0.46875 1,-1.1875 c 0,-0.296875 0.109375,-1.109375 0.46875,-1.703125 0.421875,-0.6875 1.015625,-0.828125 1.359375,-0.828125 0.828125,0 0.90625,0.65625 0.90625,0.96875 0,0.46875 -0.203125,1.28125 -0.53125,1.796875 -0.390625,0.578125 -0.9375,0.84375 -1.3125,0.84375 z m 0,0"
           style="stroke:none" />
      </symbol>
    </g>
    <g
       id="g8798">
      <symbol
         id="symbol6744"
         overflow="visible">
        <path
           id="path1625"
           d=""
           style="stroke:none" />
      </symbol>
      <symbol
         id="symbol1478"
         overflow="visible">
        <path
           id="path9544"
           d="m 2.828125,-6.234375 c 0,-0.203125 -0.140625,-0.359375 -0.359375,-0.359375 -0.28125,0 -0.546875,0.265625 -0.546875,0.53125 0,0.1875 0.140625,0.359375 0.375,0.359375 0.234375,0 0.53125,-0.234375 0.53125,-0.53125 z m -0.75,3.75 c 0.109375,-0.28125 0.109375,-0.3125 0.21875,-0.578125 0.078125,-0.203125 0.125,-0.34375 0.125,-0.53125 0,-0.4375 -0.3125,-0.8125 -0.8125,-0.8125 -0.9375,0 -1.3125,1.453125 -1.3125,1.53125 0,0.109375 0.09375,0.109375 0.109375,0.109375 0.109375,0 0.109375,-0.03125 0.15625,-0.1875 0.28125,-0.9375 0.671875,-1.234375 1.015625,-1.234375 0.078125,0 0.25,0 0.25,0.3125 0,0.21875 -0.078125,0.421875 -0.109375,0.53125 -0.078125,0.25 -0.53125,1.40625 -0.6875,1.84375 -0.109375,0.25 -0.234375,0.578125 -0.234375,0.796875 0,0.46875 0.34375,0.8125 0.8125,0.8125 0.9375,0 1.3125,-1.4375 1.3125,-1.53125 0,-0.109375 -0.09375,-0.109375 -0.125,-0.109375 -0.09375,0 -0.09375,0.03125 -0.140625,0.1875 -0.1875,0.625 -0.515625,1.234375 -1.015625,1.234375 -0.171875,0 -0.25,-0.09375 -0.25,-0.328125 0,-0.25 0.0625,-0.390625 0.296875,-1 z m 0,0"
           style="stroke:none" />
      </symbol>
    </g>
    <g
       id="g3072">
      <symbol
         id="symbol3680"
         overflow="visible">
        <path
           id="path841"
           d=""
           style="stroke:none" />
      </symbol>
      <symbol
         id="symbol1607"
         overflow="visible">
        <path
           id="path354"
           d="m 4.671875,-2.71875 c 0,-1.046875 -0.6875,-1.6875 -1.59375,-1.6875 -1.328125,0 -2.671875,1.421875 -2.671875,2.828125 0,0.984375 0.671875,1.6875 1.59375,1.6875 1.328125,0 2.671875,-1.375 2.671875,-2.828125 z m -2.65625,2.609375 c -0.4375,0 -0.875,-0.3125 -0.875,-1.09375 0,-0.484375 0.265625,-1.5625 0.578125,-2.0625 0.5,-0.765625 1.078125,-0.921875 1.359375,-0.921875 0.578125,0 0.875,0.484375 0.875,1.078125 0,0.390625 -0.203125,1.4375 -0.578125,2.078125 -0.359375,0.578125 -0.90625,0.921875 -1.359375,0.921875 z m 0,0"
           style="stroke:none" />
      </symbol>
    </g>
    <g
       id="g1706">
      <symbol
         overflow="visible"
         id="symbol3510">
        <path
           style="stroke:none"
           d=""
           id="path5605" />
      </symbol>
      <symbol
         overflow="visible"
         id="symbol7395">
        <path
           style="stroke:none"
           d="m 4.53125,-4.984375 c 0,-0.65625 -0.171875,-2.046875 -1.1875,-2.046875 -1.390625,0 -2.921875,2.8125 -2.921875,5.09375 0,0.9375 0.28125,2.046875 1.1875,2.046875 1.40625,0 2.921875,-2.859375 2.921875,-5.09375 z M 1.46875,-3.625 C 1.640625,-4.25 1.84375,-5.046875 2.25,-5.765625 2.515625,-6.25 2.875,-6.8125 3.328125,-6.8125 c 0.484375,0 0.546875,0.640625 0.546875,1.203125 0,0.5 -0.078125,1 -0.3125,1.984375 z m 2,0.328125 C 3.359375,-2.84375 3.15625,-2 2.765625,-1.28125 c -0.34375,0.6875 -0.71875,1.171875 -1.15625,1.171875 -0.328125,0 -0.53125,-0.296875 -0.53125,-1.21875 0,-0.421875 0.0625,-1 0.3125,-1.96875 z m 0,0"
           id="path4662" />
      </symbol>
    </g>
    <g
       id="g3757">
      <symbol
         id="symbol7031"
         overflow="visible">
        <path
           id="path9290"
           d=""
           style="stroke:none" />
      </symbol>
      <symbol
         id="symbol2994"
         overflow="visible">
        <path
           id="path3434"
           d="m 5.140625,-6.8125 c 0,0 0,-0.109375 -0.125,-0.109375 -0.15625,0 -1.09375,0.09375 -1.265625,0.109375 -0.078125,0.015625 -0.140625,0.0625 -0.140625,0.1875 0,0.125 0.09375,0.125 0.234375,0.125 0.484375,0 0.5,0.0625 0.5,0.171875 L 4.3125,-6.125 3.71875,-3.765625 C 3.53125,-4.140625 3.25,-4.40625 2.796875,-4.40625 c -1.15625,0 -2.390625,1.46875 -2.390625,2.921875 0,0.9375 0.546875,1.59375 1.3125,1.59375 0.203125,0 0.703125,-0.046875 1.296875,-0.75 0.078125,0.421875 0.4375,0.75 0.90625,0.75 0.359375,0 0.578125,-0.234375 0.75,-0.546875 0.15625,-0.359375 0.296875,-0.96875 0.296875,-0.984375 0,-0.109375 -0.09375,-0.109375 -0.125,-0.109375 -0.09375,0 -0.109375,0.046875 -0.140625,0.1875 -0.171875,0.640625 -0.34375,1.234375 -0.75,1.234375 -0.28125,0 -0.296875,-0.265625 -0.296875,-0.453125 0,-0.25 0.015625,-0.3125 0.046875,-0.484375 z m -2.0625,5.625 C 3.015625,-1 3.015625,-0.984375 2.875,-0.8125 2.4375,-0.265625 2.03125,-0.109375 1.75,-0.109375 c -0.5,0 -0.640625,-0.546875 -0.640625,-0.9375 0,-0.5 0.3125,-1.71875 0.546875,-2.1875 0.3125,-0.578125 0.75,-0.953125 1.15625,-0.953125 0.640625,0 0.78125,0.8125 0.78125,0.875 0,0.0625 -0.015625,0.125 -0.03125,0.171875 z m 0,0"
           style="stroke:none" />
      </symbol>
      <symbol
         id="symbol6026"
         overflow="visible">
        <path
           id="path6652"
           d="m 6.03125,-3.703125 c 0,-0.453125 -0.171875,-0.703125 -0.40625,-0.703125 -0.25,0 -0.515625,0.234375 -0.515625,0.46875 0,0.09375 0.046875,0.203125 0.140625,0.296875 0.171875,0.15625 0.359375,0.421875 0.359375,0.84375 0,0.390625 -0.203125,0.96875 -0.5,1.421875 C 4.8125,-0.953125 4.4375,-0.609375 3.96875,-0.609375 3.40625,-0.609375 3.09375,-0.96875 3,-1.5 c 0.109375,-0.265625 0.34375,-0.90625 0.34375,-1.1875 0,-0.109375 -0.046875,-0.21875 -0.1875,-0.21875 -0.078125,0 -0.1875,0.03125 -0.265625,0.171875 C 2.78125,-2.53125 2.65625,-1.890625 2.65625,-1.53125 2.328125,-1.0625 1.9375,-0.609375 1.3125,-0.609375 c -0.671875,0 -0.875,-0.59375 -0.875,-1.140625 0,-1.25 1.015625,-2.296875 1.015625,-2.421875 0,-0.109375 -0.078125,-0.1875 -0.1875,-0.1875 -0.125,0 -0.203125,0.125 -0.265625,0.21875 -0.5,0.734375 -0.875,1.921875 -0.875,2.828125 0,0.6875 0.21875,1.421875 1.046875,1.421875 0.703125,0 1.171875,-0.5 1.53125,-1.046875 0.09375,0.578125 0.484375,1.046875 1.09375,1.046875 0.78125,0 1.25,-0.609375 1.609375,-1.359375 0.25,-0.484375 0.625,-1.84375 0.625,-2.453125 z m 0,0"
           style="stroke:none" />
      </symbol>
    </g>
  </defs>
  <metadata
     id="metadata5">
    <rdf:RDF>
      <cc:Work
         rdf:about="">
        <dc:format>image/svg+xml</dc:format>
        <dc:type
           rdf:resource="http://purl.org/dc/dcmitype/StillImage" />
        <dc:title />
      </cc:Work>
    </rdf:RDF>
  </metadata>
  <g
     inkscape:label="レイヤー 1"
     inkscape:groupmode="layer"
     id="layer1"
     transform="translate(-107.94996,-85.450722)">
    <flowRoot
       xml:space="preserve"
       id="flowRoot906"
       style="font-style:normal;font-weight:normal;font-size:40px;line-height:1.25;font-family:sans-serif;letter-spacing:0px;word-spacing:0px;fill:#000000;fill-opacity:1;stroke:none"
       transform="matrix(0.26458333,0,0,0.26458333,0,87)"><flowRegion
         id="flowRegion908"><rect
           id="rect910"
           width="36"
           height="48"
           x="468"
           y="169.70079" /></flowRegion><flowPara
         id="flowPara912">1is</flowPara></flowRoot>
    <path
       style="fill:none;fill-opacity:0.301115;stroke:#000000;stroke-width:0.3;stroke-miterlimit:4;stroke-dasharray:0.6, 0.6;stroke-dashoffset:0;stroke-opacity:1"
       id="path1175-9-0"
       sodipodi:type="arc"
       sodipodi:cx="126.85422"
       sodipodi:cy="156.50731"
       sodipodi:rx="5.0596886"
       sodipodi:ry="14.515532"
       sodipodi:start="1.5495446"
       sodipodi:end="1.5419862"
       sodipodi:open="true"
       sodipodi:arc-type="arc"
       d="m 126.96174,171.01956 a 5.0596886,14.515532 0 0 1 -5.16586,-14.17637 5.0596886,14.515532 0 0 1 4.9317,-14.84687 5.0596886,14.515532 0 0 1 5.18449,14.12027 5.0596886,14.515532 0 0 1 -4.9121,14.90023" />
    <g
       id="g3459"
       transform="translate(21.700608,86.192779)"
       inkscape:label="">
      <g
         id="g3520">
        <g
           style="fill:#000000;fill-opacity:1"
           id="g8020">
          <use
             xlink:href="#symbol3394"
             x="91.925003"
             y="81.962997"
             id="use1567"
             width="100%"
             height="100%" />
        </g>
      </g>
    </g>
    <circle
       r="13.516917"
       cy="156.38005"
       cx="218.67972"
       id="path1051"
       style="fill:#000000;fill-opacity:0.304833;stroke:#000000;stroke-width:0.3;stroke-miterlimit:4;stroke-dasharray:none;stroke-dashoffset:0" />
    <path
       sodipodi:nodetypes="ccc"
       id="path1096"
       d="m 155.57496,147.20432 h -47.625 v 0"
       style="fill:none;stroke:#000000;stroke-width:0.3;stroke-linecap:butt;stroke-linejoin:miter;stroke-miterlimit:4;stroke-dasharray:none;stroke-opacity:1" />
    <path
       sodipodi:nodetypes="cc"
       id="path3360-9"
       d="m 73.025,161.49187 v 0"
       style="fill:none;stroke:#000000;stroke-width:0.3;stroke-linecap:butt;stroke-linejoin:miter;stroke-miterlimit:4;stroke-dasharray:none;stroke-opacity:1" />
    <path
       style="fill:none;stroke:#000000;stroke-width:0.3;stroke-linecap:butt;stroke-linejoin:miter;stroke-miterlimit:4;stroke-dasharray:none;stroke-opacity:1"
       d="m 127,158.31687 -6.35,6.34997"
       id="path1096-0"
       sodipodi:nodetypes="cc" />
    <path
       id="path1070"
       d="m 212.72496,147.20432 h -57.15"
       style="fill:none;stroke:#000000;stroke-width:0.3;stroke-linecap:butt;stroke-linejoin:miter;stroke-miterlimit:4;stroke-dasharray:none;stroke-opacity:1"
       sodipodi:nodetypes="cc" />
    <path
       d="m 126.99519,150.37931 a 0.63269019,3.4026947 0 0 1 -0.64597,-3.32319 0.63269019,3.4026947 0 0 1 0.61669,-3.48036 0.63269019,3.4026947 0 0 1 0.64829,3.31004 0.63269019,3.4026947 0 0 1 -0.61423,3.49287"
       sodipodi:arc-type="arc"
       sodipodi:open="true"
       sodipodi:end="1.5419862"
       sodipodi:start="1.5495446"
       sodipodi:ry="3.4026947"
       sodipodi:rx="0.63269019"
       sodipodi:cy="146.97739"
       sodipodi:cx="126.98174"
       sodipodi:type="arc"
       id="path1175-9-0-5"
       style="fill:#000000;fill-opacity:0.304833;stroke:#000000;stroke-width:0.3;stroke-miterlimit:4;stroke-dasharray:none;stroke-dashoffset:0;stroke-opacity:1" />
    <ellipse
       transform="matrix(0.76839238,0.63997903,-0.63286863,0.7742592,0,0)"
       ry="5.3186846"
       rx="8.8486814"
       cy="-101.07269"
       cx="266.9776"
       id="path1091"
       style="fill:none;fill-opacity:0.304833;stroke:#000000;stroke-width:0.300006;stroke-miterlimit:4;stroke-dasharray:none;stroke-dashoffset:0;stroke-opacity:1" />
    <path
       id="path1095"
       d="M 212.72496,147.20432 268.2875,93.22934"
       style="fill:none;stroke:#000000;stroke-width:0.3;stroke-linecap:butt;stroke-linejoin:miter;stroke-miterlimit:4;stroke-dasharray:none;stroke-opacity:1"
       sodipodi:nodetypes="cc" />
    <path
       id="path1277"
       d="m 127,144.02934 c 85.725,0 85.725,0 85.725,0"
       style="fill:none;stroke:#000000;stroke-width:0.3;stroke-linecap:butt;stroke-linejoin:miter;stroke-miterlimit:4;stroke-dasharray:none;stroke-opacity:1" />
    <path
       id="path1279"
       d="m 126.99996,150.37932 c 85.725,0 85.725,0 85.725,0"
       style="fill:none;stroke:#000000;stroke-width:0.3;stroke-linecap:butt;stroke-linejoin:miter;stroke-miterlimit:4;stroke-dasharray:none;stroke-opacity:1" />
    <path
       id="path1281"
       d="M 212.725,144.02934 C 261.9375,86.879341 261.9375,86.879341 261.9375,86.879341"
       style="fill:none;stroke:#000000;stroke-width:0.3;stroke-linecap:butt;stroke-linejoin:miter;stroke-miterlimit:4;stroke-dasharray:none;stroke-opacity:1" />
    <path
       id="path1283"
       d="M 212.72497,150.37932 276.225,97.991841"
       style="fill:none;stroke:#000000;stroke-width:0.3;stroke-linecap:butt;stroke-linejoin:miter;stroke-miterlimit:4;stroke-dasharray:none;stroke-opacity:1"
       sodipodi:nodetypes="cc" />
    <g
       inkscape:label=""
       transform="translate(16.55645,56.395082)"
       id="g1422">
      <g
         id="g4075">
        <g
           id="g587"
           style="fill:#000000;fill-opacity:1">
          <use
             height="100%"
             width="100%"
             id="use8703"
             y="81.962997"
             x="91.925003"
             xlink:href="#symbol673" />
          <use
             height="100%"
             width="100%"
             id="use9142"
             y="81.962997"
             x="97.110535"
             xlink:href="#symbol4153" />
        </g>
      </g>
    </g>
    <path
       sodipodi:open="true"
       d="m 194.2578,147.1823 a 19.049999,19.049999 0 0 1 11.52949,-14.44491 19.049999,19.049999 0 0 1 18.3583,2.13478"
       sodipodi:arc-type="arc"
       sodipodi:end="5.3346214"
       sodipodi:start="3.3087484"
       sodipodi:ry="19.049999"
       sodipodi:rx="19.049999"
       sodipodi:cy="150.35181"
       sodipodi:cx="213.04228"
       sodipodi:type="arc"
       id="path1459"
       style="fill:none;fill-opacity:0.304833;stroke:#000000;stroke-width:0.3;stroke-miterlimit:4;stroke-dasharray:0.9, 0.9;stroke-dashoffset:0;stroke-opacity:1" />
    <path
       id="path1914"
       d="m 198.43747,151.96682 c -19.05,0 -19.05,0 -19.05,0"
       style="fill:none;stroke:#000000;stroke-width:0.3;stroke-linecap:butt;stroke-linejoin:miter;stroke-miterlimit:4;stroke-dasharray:none;stroke-opacity:1;marker-end:url(#marker1924)" />
    <path
       id="path2461"
       d="M 227.0125,140.85434 C 241.3,129.74184 241.3,129.74184 241.3,129.74184"
       style="fill:none;stroke:#000000;stroke-width:0.3;stroke-linecap:butt;stroke-linejoin:miter;stroke-miterlimit:4;stroke-dasharray:none;stroke-opacity:1;marker-end:url(#marker2465)" />
    <path
       id="path2668"
       d="m 127,144.02934 c -7.9375,-4.7625 -7.9375,-4.7625 -7.9375,-4.7625"
       style="fill:none;stroke:#000000;stroke-width:0.3;stroke-linecap:butt;stroke-linejoin:miter;stroke-miterlimit:4;stroke-dasharray:none;stroke-opacity:1" />
    <g
       inkscape:label=""
       transform="translate(150.84294,54.959596)"
       id="g1567">
      <g
         id="g2814">
        <g
           id="g6471"
           style="fill:#000000;fill-opacity:1">
          <use
             height="100%"
             width="100%"
             id="use7949"
             y="81.962997"
             x="91.925003"
             xlink:href="#symbol1478" />
        </g>
      </g>
    </g>
    <g
       inkscape:label=""
       transform="translate(81.585451,75.792407)"
       id="g1886">
      <g
         id="g9585">
        <g
           id="g3786"
           style="fill:#000000;fill-opacity:1">
          <use
             height="100%"
             width="100%"
             id="use7625"
             y="81.962997"
             x="91.925003"
             xlink:href="#symbol1607" />
        </g>
      </g>
    </g>
    <g
       id="g1329"
       transform="translate(111.18001,45.266222)"
       inkscape:label="">
      <g
         id="g9739">
        <g
           style="fill:#000000;fill-opacity:1"
           id="g1048">
          <use
             xlink:href="#symbol7395"
             x="91.925003"
             y="81.962997"
             id="use5339"
             width="100%"
             height="100%" />
        </g>
      </g>
    </g>
    <g
       inkscape:label=""
       transform="translate(187.07346,14.206134)"
       id="g1058">
      <g
         id="g1687">
        <g
           id="g4815"
           style="fill:#000000;fill-opacity:1">
          <use
             height="100%"
             width="100%"
             id="use7427"
             y="81.962997"
             x="91.925003"
             xlink:href="#symbol2994" />
          <use
             height="100%"
             width="100%"
             id="use2768"
             y="81.962997"
             x="97.110535"
             xlink:href="#symbol6026" />
        </g>
      </g>
    </g>
  </g>
</svg>
