<?xml version="1.0" encoding="UTF-8" standalone="no"?>
<svg
   xmlns:dc="http://purl.org/dc/elements/1.1/"
   xmlns:cc="http://creativecommons.org/ns#"
   xmlns:rdf="http://www.w3.org/1999/02/22-rdf-syntax-ns#"
   xmlns:svg="http://www.w3.org/2000/svg"
   xmlns="http://www.w3.org/2000/svg"
   xmlns:xlink="http://www.w3.org/1999/xlink"
   xmlns:sodipodi="http://sodipodi.sourceforge.net/DTD/sodipodi-0.dtd"
   xmlns:inkscape="http://www.inkscape.org/namespaces/inkscape"
   width="124.03484mm"
   height="115.90563mm"
   viewBox="0 0 124.03484 115.90562"
   version="1.1"
   id="svg8"
   inkscape:version="1.0 (4035a4fb49, 2020-05-01)"
   sodipodi:docname="microsurface_area.svg">
  <sodipodi:namedview
     inkscape:window-maximized="0"
     inkscape:window-y="96"
     inkscape:window-x="369"
     inkscape:window-height="872"
     inkscape:window-width="1437"
     showgrid="true"
     inkscape:current-layer="layer1"
     inkscape:document-units="mm"
     inkscape:cy="166.63552"
     inkscape:cx="149.89662"
     inkscape:zoom="1.175641"
     inkscape:pageshadow="2"
     inkscape:pageopacity="0.0"
     borderopacity="1.0"
     bordercolor="#666666"
     pagecolor="#ffffff"
     id="base"
     fit-margin-top="0"
     fit-margin-left="0"
     fit-margin-right="0"
     fit-margin-bottom="0"
     inkscape:document-rotation="0">
    <inkscape:grid
       empspacing="3"
       id="grid3721"
       type="xygrid"
       originx="-15.797578"
       originy="-93.816831" />
  </sodipodi:namedview>
  <defs
     id="defs2">
    <marker
       inkscape:stockid="Arrow1Lend"
       orient="auto"
       refY="0"
       refX="0"
       id="marker1072"
       style="overflow:visible"
       inkscape:isstock="true">
      <path
         inkscape:connector-curvature="0"
         id="path1070"
         d="M 0,0 5,-5 -12.5,0 5,5 Z"
         style="fill:#000000;fill-opacity:1;fill-rule:evenodd;stroke:#000000;stroke-width:1pt;stroke-opacity:1"
         transform="matrix(-0.8,0,0,-0.8,-10,0)" />
    </marker>
    <inkscape:path-effect
       effect="bspline"
       id="path-effect1045"
       is_visible="true"
       lpeversion="1"
       weight="33.333333"
       steps="2"
       helper_size="0"
       apply_no_weight="true"
       apply_with_weight="true"
       only_selected="false" />
    <inkscape:path-effect
       effect="bspline"
       id="path-effect1041"
       is_visible="true"
       lpeversion="1"
       weight="33.333333"
       steps="2"
       helper_size="0"
       apply_no_weight="true"
       apply_with_weight="true"
       only_selected="false" />
    <inkscape:path-effect
       effect="bspline"
       id="path-effect1013"
       is_visible="true"
       lpeversion="1"
       weight="33.333333"
       steps="2"
       helper_size="0"
       apply_no_weight="true"
       apply_with_weight="true"
       only_selected="false" />
    <inkscape:path-effect
       effect="bspline"
       id="path-effect1009"
       is_visible="true"
       lpeversion="1"
       weight="33.333333"
       steps="2"
       helper_size="0"
       apply_no_weight="true"
       apply_with_weight="true"
       only_selected="false" />
    <inkscape:path-effect
       only_selected="false"
       apply_with_weight="true"
       apply_no_weight="true"
       helper_size="0"
       steps="2"
       weight="33.333333"
       lpeversion="1"
       is_visible="true"
       id="path-effect1005"
       effect="bspline" />
    <inkscape:path-effect
       only_selected="false"
       apply_with_weight="true"
       apply_no_weight="true"
       helper_size="0"
       steps="2"
       weight="33.333333"
       lpeversion="1"
       is_visible="true"
       id="path-effect967"
       effect="bspline" />
    <inkscape:path-effect
       only_selected="false"
       apply_with_weight="true"
       apply_no_weight="true"
       helper_size="0"
       steps="2"
       weight="33.333333"
       lpeversion="1"
       is_visible="true"
       id="path-effect948"
       effect="bspline" />
    <inkscape:path-effect
       effect="bspline"
       id="path-effect929"
       is_visible="true"
       lpeversion="1"
       weight="33.333333"
       steps="2"
       helper_size="0"
       apply_no_weight="true"
       apply_with_weight="true"
       only_selected="false" />
    <inkscape:path-effect
       effect="bspline"
       id="path-effect925"
       is_visible="true"
       lpeversion="1"
       weight="33.333333"
       steps="2"
       helper_size="0"
       apply_no_weight="true"
       apply_with_weight="true"
       only_selected="false" />
    <marker
       inkscape:isstock="true"
       style="overflow:visible"
       id="marker6329"
       refX="0"
       refY="0"
       orient="auto"
       inkscape:stockid="Arrow1Lend"
       inkscape:collect="always">
      <path
         transform="matrix(-0.8,0,0,-0.8,-10,0)"
         style="fill:#000000;fill-opacity:1;fill-rule:evenodd;stroke:#000000;stroke-width:1pt;stroke-opacity:1"
         d="M 0,0 5,-5 -12.5,0 5,5 Z"
         id="path6327"
         inkscape:connector-curvature="0" />
    </marker>
    <g
       id="g4863">
      <symbol
         id="symbol1410"
         overflow="visible">
        <path
           id="path9829"
           d=""
           style="stroke:none" />
      </symbol>
      <symbol
         id="symbol7289"
         overflow="visible">
        <path
           id="path7746"
           d="m 2.859375,-6.8125 c 0,0 0,-0.109375 -0.125,-0.109375 -0.234375,0 -0.953125,0.078125 -1.21875,0.109375 -0.078125,0 -0.1875,0.015625 -0.1875,0.1875 0,0.125 0.09375,0.125 0.234375,0.125 0.484375,0 0.5,0.0625 0.5,0.171875 L 2.03125,-6.125 0.59375,-0.390625 c -0.046875,0.140625 -0.046875,0.15625 -0.046875,0.21875 0,0.234375 0.203125,0.28125 0.296875,0.28125 0.15625,0 0.3125,-0.125 0.359375,-0.265625 l 0.1875,-0.75 0.21875,-0.890625 C 1.671875,-2.03125 1.734375,-2.25 1.78125,-2.46875 1.796875,-2.53125 1.890625,-2.859375 1.890625,-2.921875 1.921875,-3.015625 2.234375,-3.5625 2.578125,-3.84375 2.796875,-4 3.09375,-4.1875 3.53125,-4.1875 c 0.421875,0 0.53125,0.34375 0.53125,0.703125 0,0.53125 -0.375,1.625 -0.609375,2.234375 C 3.375,-1.03125 3.3125,-0.90625 3.3125,-0.703125 c 0,0.46875 0.359375,0.8125 0.828125,0.8125 0.9375,0 1.296875,-1.453125 1.296875,-1.53125 0,-0.109375 -0.078125,-0.109375 -0.109375,-0.109375 -0.109375,0 -0.109375,0.03125 -0.15625,0.1875 -0.140625,0.53125 -0.46875,1.234375 -1.015625,1.234375 -0.171875,0 -0.234375,-0.09375 -0.234375,-0.328125 0,-0.25 0.078125,-0.484375 0.171875,-0.703125 0.15625,-0.4375 0.609375,-1.625 0.609375,-2.203125 0,-0.640625 -0.390625,-1.0625 -1.140625,-1.0625 -0.625,0 -1.109375,0.3125 -1.484375,0.765625 z m 0,0"
           style="stroke:none" />
      </symbol>
    </g>
    <g
       id="g7823">
      <symbol
         id="symbol642"
         overflow="visible">
        <path
           id="path9497"
           d=""
           style="stroke:none" />
      </symbol>
      <symbol
         id="symbol4039"
         overflow="visible">
        <path
           id="path8690"
           d="m 4.53125,-4.984375 c 0,-0.65625 -0.171875,-2.046875 -1.1875,-2.046875 -1.390625,0 -2.921875,2.8125 -2.921875,5.09375 0,0.9375 0.28125,2.046875 1.1875,2.046875 1.40625,0 2.921875,-2.859375 2.921875,-5.09375 z M 1.46875,-3.625 C 1.640625,-4.25 1.84375,-5.046875 2.25,-5.765625 2.515625,-6.25 2.875,-6.8125 3.328125,-6.8125 c 0.484375,0 0.546875,0.640625 0.546875,1.203125 0,0.5 -0.078125,1 -0.3125,1.984375 z m 2,0.328125 C 3.359375,-2.84375 3.15625,-2 2.765625,-1.28125 c -0.34375,0.6875 -0.71875,1.171875 -1.15625,1.171875 -0.328125,0 -0.53125,-0.296875 -0.53125,-1.21875 0,-0.421875 0.0625,-1 0.3125,-1.96875 z m 0,0"
           style="stroke:none" />
      </symbol>
      <symbol
         id="symbol300"
         overflow="visible">
        <path
           id="path1676"
           d=""
           style="stroke:none" />
      </symbol>
      <symbol
         id="symbol9929"
         overflow="visible">
        <path
           id="path3104"
           d="m 2.1875,-4.625 c 0,-0.015625 0.015625,-0.109375 0.015625,-0.109375 0,-0.046875 -0.015625,-0.109375 -0.109375,-0.109375 -0.140625,0 -0.71875,0.0625 -0.890625,0.078125 -0.046875,0 -0.15625,0.015625 -0.15625,0.15625 0,0.09375 0.109375,0.09375 0.1875,0.09375 0.328125,0 0.328125,0.0625 0.328125,0.109375 0,0.046875 -0.015625,0.09375 -0.015625,0.15625 L 0.5625,-0.3125 c -0.046875,0.125 -0.046875,0.140625 -0.046875,0.15625 0,0.109375 0.09375,0.21875 0.25,0.21875 0.078125,0 0.203125,-0.03125 0.28125,-0.171875 C 1.0625,-0.15625 1.125,-0.40625 1.15625,-0.546875 l 0.171875,-0.625 C 1.34375,-1.28125 1.421875,-1.546875 1.4375,-1.640625 1.5,-1.90625 1.5,-1.921875 1.640625,-2.140625 1.875,-2.484375 2.21875,-2.875 2.765625,-2.875 c 0.390625,0 0.40625,0.3125 0.40625,0.484375 0,0.421875 -0.296875,1.1875 -0.40625,1.484375 -0.078125,0.203125 -0.109375,0.265625 -0.109375,0.375 0,0.375 0.3125,0.59375 0.65625,0.59375 0.703125,0 1.015625,-0.953125 1.015625,-1.0625 0,-0.09375 -0.09375,-0.09375 -0.125,-0.09375 -0.09375,0 -0.09375,0.046875 -0.125,0.125 -0.15625,0.5625 -0.46875,0.84375 -0.734375,0.84375 -0.15625,0 -0.1875,-0.09375 -0.1875,-0.25 0,-0.15625 0.046875,-0.25 0.171875,-0.5625 C 3.40625,-1.15625 3.6875,-1.890625 3.6875,-2.28125 c 0,-0.109375 0,-0.40625 -0.25,-0.609375 -0.125,-0.078125 -0.328125,-0.1875 -0.65625,-0.1875 -0.5,0 -0.875,0.28125 -1.125,0.578125 z m 0,0"
           style="stroke:none" />
      </symbol>
    </g>
    <g
       id="g972">
      <symbol
         id="symbol8014"
         overflow="visible">
        <path
           id="path6345"
           d=""
           style="stroke:none" />
      </symbol>
      <symbol
         id="symbol8066"
         overflow="visible">
        <path
           id="path2946"
           d="m 2.828125,-6.234375 c 0,-0.203125 -0.140625,-0.359375 -0.359375,-0.359375 -0.28125,0 -0.546875,0.265625 -0.546875,0.53125 0,0.1875 0.140625,0.359375 0.375,0.359375 0.234375,0 0.53125,-0.234375 0.53125,-0.53125 z m -0.75,3.75 c 0.109375,-0.28125 0.109375,-0.3125 0.21875,-0.578125 0.078125,-0.203125 0.125,-0.34375 0.125,-0.53125 0,-0.4375 -0.3125,-0.8125 -0.8125,-0.8125 -0.9375,0 -1.3125,1.453125 -1.3125,1.53125 0,0.109375 0.09375,0.109375 0.109375,0.109375 0.109375,0 0.109375,-0.03125 0.15625,-0.1875 0.28125,-0.9375 0.671875,-1.234375 1.015625,-1.234375 0.078125,0 0.25,0 0.25,0.3125 0,0.21875 -0.078125,0.421875 -0.109375,0.53125 -0.078125,0.25 -0.53125,1.40625 -0.6875,1.84375 -0.109375,0.25 -0.234375,0.578125 -0.234375,0.796875 0,0.46875 0.34375,0.8125 0.8125,0.8125 0.9375,0 1.3125,-1.4375 1.3125,-1.53125 0,-0.109375 -0.09375,-0.109375 -0.125,-0.109375 -0.09375,0 -0.09375,0.03125 -0.140625,0.1875 -0.1875,0.625 -0.515625,1.234375 -1.015625,1.234375 -0.171875,0 -0.25,-0.09375 -0.25,-0.328125 0,-0.25 0.0625,-0.390625 0.296875,-1 z m 0,0"
           style="stroke:none" />
      </symbol>
      <symbol
         id="symbol8585"
         overflow="visible">
        <path
           id="path2071"
           d="m 2.03125,-0.015625 c 0,-0.65625 -0.25,-1.046875 -0.640625,-1.046875 -0.328125,0 -0.53125,0.25 -0.53125,0.53125 C 0.859375,-0.265625 1.0625,0 1.390625,0 1.5,0 1.640625,-0.046875 1.734375,-0.125 1.765625,-0.15625 1.78125,-0.15625 1.78125,-0.15625 c 0.015625,0 0.015625,0 0.015625,0.140625 0,0.75 -0.34375,1.34375 -0.671875,1.671875 -0.109375,0.109375 -0.109375,0.125 -0.109375,0.15625 0,0.078125 0.046875,0.109375 0.09375,0.109375 0.109375,0 0.921875,-0.765625 0.921875,-1.9375 z m 0,0"
           style="stroke:none" />
      </symbol>
      <symbol
         id="symbol4818"
         overflow="visible">
        <path
           id="path8031"
           d="m 4.671875,-2.71875 c 0,-1.046875 -0.6875,-1.6875 -1.59375,-1.6875 -1.328125,0 -2.671875,1.421875 -2.671875,2.828125 0,0.984375 0.671875,1.6875 1.59375,1.6875 1.328125,0 2.671875,-1.375 2.671875,-2.828125 z m -2.65625,2.609375 c -0.4375,0 -0.875,-0.3125 -0.875,-1.09375 0,-0.484375 0.265625,-1.5625 0.578125,-2.0625 0.5,-0.765625 1.078125,-0.921875 1.359375,-0.921875 0.578125,0 0.875,0.484375 0.875,1.078125 0,0.390625 -0.203125,1.4375 -0.578125,2.078125 -0.359375,0.578125 -0.90625,0.921875 -1.359375,0.921875 z m 0,0"
           style="stroke:none" />
      </symbol>
    </g>
    <g
       id="g1170">
      <symbol
         id="symbol721"
         overflow="visible">
        <path
           id="path1549"
           d=""
           style="stroke:none" />
      </symbol>
      <symbol
         id="symbol3012"
         overflow="visible">
        <path
           id="path1879"
           d="m 5.140625,-6.8125 c 0,0 0,-0.109375 -0.125,-0.109375 -0.15625,0 -1.09375,0.09375 -1.265625,0.109375 -0.078125,0.015625 -0.140625,0.0625 -0.140625,0.1875 0,0.125 0.09375,0.125 0.234375,0.125 0.484375,0 0.5,0.0625 0.5,0.171875 L 4.3125,-6.125 3.71875,-3.765625 C 3.53125,-4.140625 3.25,-4.40625 2.796875,-4.40625 c -1.15625,0 -2.390625,1.46875 -2.390625,2.921875 0,0.9375 0.546875,1.59375 1.3125,1.59375 0.203125,0 0.703125,-0.046875 1.296875,-0.75 0.078125,0.421875 0.4375,0.75 0.90625,0.75 0.359375,0 0.578125,-0.234375 0.75,-0.546875 0.15625,-0.359375 0.296875,-0.96875 0.296875,-0.984375 0,-0.109375 -0.09375,-0.109375 -0.125,-0.109375 -0.09375,0 -0.109375,0.046875 -0.140625,0.1875 -0.171875,0.640625 -0.34375,1.234375 -0.75,1.234375 -0.28125,0 -0.296875,-0.265625 -0.296875,-0.453125 0,-0.25 0.015625,-0.3125 0.046875,-0.484375 z m -2.0625,5.625 C 3.015625,-1 3.015625,-0.984375 2.875,-0.8125 2.4375,-0.265625 2.03125,-0.109375 1.75,-0.109375 c -0.5,0 -0.640625,-0.546875 -0.640625,-0.9375 0,-0.5 0.3125,-1.71875 0.546875,-2.1875 0.3125,-0.578125 0.75,-0.953125 1.15625,-0.953125 0.640625,0 0.78125,0.8125 0.78125,0.875 0,0.0625 -0.015625,0.125 -0.03125,0.171875 z m 0,0"
           style="stroke:none" />
      </symbol>
      <symbol
         id="symbol8556"
         overflow="visible">
        <path
           id="path1638"
           d="m 5.15625,-3.71875 c 0.140625,0 0.5,0 0.5,-0.34375 0,-0.234375 -0.21875,-0.234375 -0.390625,-0.234375 h -2.28125 c -1.5,0 -2.609375,1.640625 -2.609375,2.828125 0,0.875 0.59375,1.578125 1.5,1.578125 1.171875,0 2.5,-1.203125 2.5,-2.734375 0,-0.171875 0,-0.65625 -0.3125,-1.09375 z M 1.890625,-0.109375 C 1.390625,-0.109375 1,-0.46875 1,-1.1875 c 0,-0.296875 0.109375,-1.109375 0.46875,-1.703125 0.421875,-0.6875 1.015625,-0.828125 1.359375,-0.828125 0.828125,0 0.90625,0.65625 0.90625,0.96875 0,0.46875 -0.203125,1.28125 -0.53125,1.796875 -0.390625,0.578125 -0.9375,0.84375 -1.3125,0.84375 z m 0,0"
           style="stroke:none" />
      </symbol>
      <symbol
         id="symbol2805"
         overflow="visible">
        <path
           id="path7903"
           d=""
           style="stroke:none" />
      </symbol>
      <symbol
         id="symbol4501"
         overflow="visible">
        <path
           id="path7452"
           d="m 2.1875,-4.625 c 0,-0.015625 0.015625,-0.109375 0.015625,-0.109375 0,-0.046875 -0.015625,-0.109375 -0.109375,-0.109375 -0.140625,0 -0.71875,0.0625 -0.890625,0.078125 -0.046875,0 -0.15625,0.015625 -0.15625,0.15625 0,0.09375 0.109375,0.09375 0.1875,0.09375 0.328125,0 0.328125,0.0625 0.328125,0.109375 0,0.046875 -0.015625,0.09375 -0.015625,0.15625 L 0.5625,-0.3125 c -0.046875,0.125 -0.046875,0.140625 -0.046875,0.15625 0,0.109375 0.09375,0.21875 0.25,0.21875 0.078125,0 0.203125,-0.03125 0.28125,-0.171875 C 1.0625,-0.15625 1.125,-0.40625 1.15625,-0.546875 l 0.171875,-0.625 C 1.34375,-1.28125 1.421875,-1.546875 1.4375,-1.640625 1.5,-1.90625 1.5,-1.921875 1.640625,-2.140625 1.875,-2.484375 2.21875,-2.875 2.765625,-2.875 c 0.390625,0 0.40625,0.3125 0.40625,0.484375 0,0.421875 -0.296875,1.1875 -0.40625,1.484375 -0.078125,0.203125 -0.109375,0.265625 -0.109375,0.375 0,0.375 0.3125,0.59375 0.65625,0.59375 0.703125,0 1.015625,-0.953125 1.015625,-1.0625 0,-0.09375 -0.09375,-0.09375 -0.125,-0.09375 -0.09375,0 -0.09375,0.046875 -0.125,0.125 -0.15625,0.5625 -0.46875,0.84375 -0.734375,0.84375 -0.15625,0 -0.1875,-0.09375 -0.1875,-0.25 0,-0.15625 0.046875,-0.25 0.171875,-0.5625 C 3.40625,-1.15625 3.6875,-1.890625 3.6875,-2.28125 c 0,-0.109375 0,-0.40625 -0.25,-0.609375 -0.125,-0.078125 -0.328125,-0.1875 -0.65625,-0.1875 -0.5,0 -0.875,0.28125 -1.125,0.578125 z m 0,0"
           style="stroke:none" />
      </symbol>
    </g>
    <g
       id="g9402">
      <symbol
         id="symbol8410"
         overflow="visible">
        <path
           id="path3190"
           d=""
           style="stroke:none" />
      </symbol>
      <symbol
         id="symbol3927"
         overflow="visible">
        <path
           id="path7379"
           d="m 4.53125,-4.984375 c 0,-0.65625 -0.171875,-2.046875 -1.1875,-2.046875 -1.390625,0 -2.921875,2.8125 -2.921875,5.09375 0,0.9375 0.28125,2.046875 1.1875,2.046875 1.40625,0 2.921875,-2.859375 2.921875,-5.09375 z M 1.46875,-3.625 C 1.640625,-4.25 1.84375,-5.046875 2.25,-5.765625 2.515625,-6.25 2.875,-6.8125 3.328125,-6.8125 c 0.484375,0 0.546875,0.640625 0.546875,1.203125 0,0.5 -0.078125,1 -0.3125,1.984375 z m 2,0.328125 C 3.359375,-2.84375 3.15625,-2 2.765625,-1.28125 c -0.34375,0.6875 -0.71875,1.171875 -1.15625,1.171875 -0.328125,0 -0.53125,-0.296875 -0.53125,-1.21875 0,-0.421875 0.0625,-1 0.3125,-1.96875 z m 0,0"
           style="stroke:none" />
      </symbol>
      <symbol
         id="symbol9187"
         overflow="visible">
        <path
           id="path932"
           d=""
           style="stroke:none" />
      </symbol>
      <symbol
         id="symbol3949"
         overflow="visible">
        <path
           id="path4692"
           d="m 2.1875,-4.625 c 0,-0.015625 0.015625,-0.109375 0.015625,-0.109375 0,-0.046875 -0.015625,-0.109375 -0.109375,-0.109375 -0.140625,0 -0.71875,0.0625 -0.890625,0.078125 -0.046875,0 -0.15625,0.015625 -0.15625,0.15625 0,0.09375 0.109375,0.09375 0.1875,0.09375 0.328125,0 0.328125,0.0625 0.328125,0.109375 0,0.046875 -0.015625,0.09375 -0.015625,0.15625 L 0.5625,-0.3125 c -0.046875,0.125 -0.046875,0.140625 -0.046875,0.15625 0,0.109375 0.09375,0.21875 0.25,0.21875 0.078125,0 0.203125,-0.03125 0.28125,-0.171875 C 1.0625,-0.15625 1.125,-0.40625 1.15625,-0.546875 l 0.171875,-0.625 C 1.34375,-1.28125 1.421875,-1.546875 1.4375,-1.640625 1.5,-1.90625 1.5,-1.921875 1.640625,-2.140625 1.875,-2.484375 2.21875,-2.875 2.765625,-2.875 c 0.390625,0 0.40625,0.3125 0.40625,0.484375 0,0.421875 -0.296875,1.1875 -0.40625,1.484375 -0.078125,0.203125 -0.109375,0.265625 -0.109375,0.375 0,0.375 0.3125,0.59375 0.65625,0.59375 0.703125,0 1.015625,-0.953125 1.015625,-1.0625 0,-0.09375 -0.09375,-0.09375 -0.125,-0.09375 -0.09375,0 -0.09375,0.046875 -0.125,0.125 -0.15625,0.5625 -0.46875,0.84375 -0.734375,0.84375 -0.15625,0 -0.1875,-0.09375 -0.1875,-0.25 0,-0.15625 0.046875,-0.25 0.171875,-0.5625 C 3.40625,-1.15625 3.6875,-1.890625 3.6875,-2.28125 c 0,-0.109375 0,-0.40625 -0.25,-0.609375 -0.125,-0.078125 -0.328125,-0.1875 -0.65625,-0.1875 -0.5,0 -0.875,0.28125 -1.125,0.578125 z m 0,0"
           style="stroke:none" />
      </symbol>
    </g>
    <g
       id="g9671">
      <symbol
         id="symbol6004"
         overflow="visible">
        <path
           id="path8927"
           d=""
           style="stroke:none;" />
      </symbol>
      <symbol
         id="symbol6511"
         overflow="visible">
        <path
           id="path7486"
           d="M 5.140625 -6.8125 C 5.140625 -6.8125 5.140625 -6.921875 5.015625 -6.921875 C 4.859375 -6.921875 3.921875 -6.828125 3.75 -6.8125 C 3.671875 -6.796875 3.609375 -6.75 3.609375 -6.625 C 3.609375 -6.5 3.703125 -6.5 3.84375 -6.5 C 4.328125 -6.5 4.34375 -6.4375 4.34375 -6.328125 L 4.3125 -6.125 L 3.71875 -3.765625 C 3.53125 -4.140625 3.25 -4.40625 2.796875 -4.40625 C 1.640625 -4.40625 0.40625 -2.9375 0.40625 -1.484375 C 0.40625 -0.546875 0.953125 0.109375 1.71875 0.109375 C 1.921875 0.109375 2.421875 0.0625 3.015625 -0.640625 C 3.09375 -0.21875 3.453125 0.109375 3.921875 0.109375 C 4.28125 0.109375 4.5 -0.125 4.671875 -0.4375 C 4.828125 -0.796875 4.96875 -1.40625 4.96875 -1.421875 C 4.96875 -1.53125 4.875 -1.53125 4.84375 -1.53125 C 4.75 -1.53125 4.734375 -1.484375 4.703125 -1.34375 C 4.53125 -0.703125 4.359375 -0.109375 3.953125 -0.109375 C 3.671875 -0.109375 3.65625 -0.375 3.65625 -0.5625 C 3.65625 -0.8125 3.671875 -0.875 3.703125 -1.046875 Z M 3.078125 -1.1875 C 3.015625 -1 3.015625 -0.984375 2.875 -0.8125 C 2.4375 -0.265625 2.03125 -0.109375 1.75 -0.109375 C 1.25 -0.109375 1.109375 -0.65625 1.109375 -1.046875 C 1.109375 -1.546875 1.421875 -2.765625 1.65625 -3.234375 C 1.96875 -3.8125 2.40625 -4.1875 2.8125 -4.1875 C 3.453125 -4.1875 3.59375 -3.375 3.59375 -3.3125 C 3.59375 -3.25 3.578125 -3.1875 3.5625 -3.140625 Z M 3.078125 -1.1875 "
           style="stroke:none;" />
      </symbol>
      <symbol
         id="symbol5184"
         overflow="visible">
        <path
           id="path4123"
           d="M 5.15625 -3.71875 C 5.296875 -3.71875 5.65625 -3.71875 5.65625 -4.0625 C 5.65625 -4.296875 5.4375 -4.296875 5.265625 -4.296875 L 2.984375 -4.296875 C 1.484375 -4.296875 0.375 -2.65625 0.375 -1.46875 C 0.375 -0.59375 0.96875 0.109375 1.875 0.109375 C 3.046875 0.109375 4.375 -1.09375 4.375 -2.625 C 4.375 -2.796875 4.375 -3.28125 4.0625 -3.71875 Z M 1.890625 -0.109375 C 1.390625 -0.109375 1 -0.46875 1 -1.1875 C 1 -1.484375 1.109375 -2.296875 1.46875 -2.890625 C 1.890625 -3.578125 2.484375 -3.71875 2.828125 -3.71875 C 3.65625 -3.71875 3.734375 -3.0625 3.734375 -2.75 C 3.734375 -2.28125 3.53125 -1.46875 3.203125 -0.953125 C 2.8125 -0.375 2.265625 -0.109375 1.890625 -0.109375 Z M 1.890625 -0.109375 "
           style="stroke:none;" />
      </symbol>
      <symbol
         id="symbol1965"
         overflow="visible">
        <path
           id="path5580"
           d=""
           style="stroke:none;" />
      </symbol>
      <symbol
         id="symbol8685"
         overflow="visible">
        <path
           id="path9799"
           d="M 1.640625 -1.40625 C 1.640625 -1.453125 1.8125 -2.078125 1.8125 -2.109375 C 1.828125 -2.171875 2.03125 -2.515625 2.265625 -2.6875 C 2.328125 -2.734375 2.515625 -2.875 2.828125 -2.875 C 2.890625 -2.875 3.0625 -2.875 3.203125 -2.78125 C 2.984375 -2.71875 2.90625 -2.515625 2.90625 -2.390625 C 2.90625 -2.25 3.015625 -2.140625 3.171875 -2.140625 C 3.34375 -2.140625 3.5625 -2.265625 3.5625 -2.5625 C 3.5625 -2.921875 3.1875 -3.078125 2.828125 -3.078125 C 2.46875 -3.078125 2.15625 -2.921875 1.84375 -2.578125 C 1.71875 -3 1.296875 -3.078125 1.125 -3.078125 C 0.875 -3.078125 0.703125 -2.90625 0.578125 -2.71875 C 0.421875 -2.453125 0.328125 -2.046875 0.328125 -2 C 0.328125 -1.921875 0.421875 -1.921875 0.453125 -1.921875 C 0.546875 -1.921875 0.546875 -1.9375 0.59375 -2.125 C 0.703125 -2.546875 0.84375 -2.875 1.109375 -2.875 C 1.296875 -2.875 1.34375 -2.71875 1.34375 -2.53125 C 1.34375 -2.40625 1.28125 -2.140625 1.21875 -1.953125 C 1.171875 -1.765625 1.109375 -1.484375 1.078125 -1.328125 L 0.84375 -0.4375 C 0.828125 -0.34375 0.78125 -0.171875 0.78125 -0.15625 C 0.78125 0 0.90625 0.0625 1.015625 0.0625 C 1.125 0.0625 1.265625 0 1.3125 -0.125 C 1.328125 -0.171875 1.40625 -0.484375 1.453125 -0.65625 Z M 1.640625 -1.40625 "
           style="stroke:none;" />
      </symbol>
    </g>
  </defs>
  <metadata
     id="metadata5">
    <rdf:RDF>
      <cc:Work
         rdf:about="">
        <dc:format>image/svg+xml</dc:format>
        <dc:type
           rdf:resource="http://purl.org/dc/dcmitype/StillImage" />
        <dc:title />
      </cc:Work>
    </rdf:RDF>
  </metadata>
  <g
     transform="translate(-15.79758,-225.38235)"
     id="layer1"
     inkscape:groupmode="layer"
     inkscape:label="レイヤー 1">
    <flowRoot
       transform="matrix(0.26458333,0,0,0.26458333,0,87)"
       style="font-style:normal;font-weight:normal;font-size:40px;line-height:1.25;font-family:sans-serif;letter-spacing:0px;word-spacing:0px;fill:#000000;fill-opacity:1;stroke:none"
       id="flowRoot906"
       xml:space="preserve"><flowRegion
         id="flowRegion908"><rect
           y="169.70079"
           x="468"
           height="48"
           width="36"
           id="rect910" /></flowRegion><flowPara
         id="flowPara912">1is</flowPara></flowRoot>
    <path
       style="fill:none;stroke:#000000;stroke-width:0.385714;stroke-linecap:butt;stroke-linejoin:miter;stroke-miterlimit:4;stroke-dasharray:none;stroke-opacity:1"
       d="m 41.728573,259.47263 c 8.164532,4.08227 16.328816,8.16441 24.492857,12.24643"
       id="path923"
       inkscape:path-effect="#path-effect925"
       inkscape:original-d="m 41.728573,259.47263 c 8.16449,4.08235 16.328776,8.16449 24.492857,12.24643" />
    <path
       style="fill:none;stroke:#000000;stroke-width:0.385714;stroke-linecap:butt;stroke-linejoin:miter;stroke-miterlimit:4;stroke-dasharray:none;stroke-opacity:1"
       d="m 41.728573,259.47263 c 0,23.13248 0,46.26463 0,69.39643"
       id="path927"
       inkscape:path-effect="#path-effect929"
       inkscape:original-d="m 41.728573,259.47263 c 3.41e-4,23.13248 3.41e-4,46.26463 0,69.39643"
       sodipodi:nodetypes="cc" />
    <path
       inkscape:original-d="m 66.22143,271.71906 c 3.41e-4,23.13248 3.41e-4,46.26463 0,69.39643"
       inkscape:path-effect="#path-effect948"
       id="path927-1"
       d="m 66.22143,271.71906 c 0,23.13248 0,46.26463 0,69.39643"
       style="fill:none;stroke:#000000;stroke-width:0.385714;stroke-linecap:butt;stroke-linejoin:miter;stroke-miterlimit:4;stroke-dasharray:none;stroke-opacity:1"
       sodipodi:nodetypes="cc" />
    <path
       inkscape:original-d="m 41.728573,328.86906 c 8.16449,4.08235 16.328774,8.16449 24.492856,12.24643"
       inkscape:path-effect="#path-effect967"
       id="path923-8"
       d="m 41.728573,328.86906 c 8.164532,4.08227 16.328815,8.16441 24.492856,12.24643"
       style="fill:none;stroke:#000000;stroke-width:0.385714;stroke-linecap:butt;stroke-linejoin:miter;stroke-miterlimit:4;stroke-dasharray:none;stroke-opacity:1" />
    <path
       inkscape:original-d="m 115.20714,259.47263 c 8.16449,4.08235 16.32878,8.16449 24.49286,12.24643"
       inkscape:path-effect="#path-effect1005"
       id="path923-9"
       d="m 115.20714,259.47263 c 8.16453,4.08227 16.32882,8.16441 24.49286,12.24643"
       style="fill:none;stroke:#000000;stroke-width:0.385714;stroke-linecap:butt;stroke-linejoin:miter;stroke-miterlimit:4;stroke-dasharray:none;stroke-opacity:1" />
    <path
       style="fill:none;stroke:#000000;stroke-width:0.385714;stroke-linecap:butt;stroke-linejoin:miter;stroke-miterlimit:4;stroke-dasharray:none;stroke-opacity:1"
       d="m 41.728573,328.86906 c 24.492865,-23.13215 48.985728,-46.2643 73.478567,-69.39643"
       id="path1007"
       inkscape:path-effect="#path-effect1009"
       inkscape:original-d="m 41.728573,328.86906 c 24.493198,-23.1318 48.98606,-46.26395 73.478567,-69.39643"
       sodipodi:nodetypes="cc" />
    <path
       style="fill:none;stroke:#000000;stroke-width:0.385714;stroke-linecap:butt;stroke-linejoin:miter;stroke-miterlimit:4;stroke-dasharray:none;stroke-opacity:1"
       d="M 66.22143,341.11549 C 90.714298,317.98334 115.20716,294.85119 139.7,271.71906"
       id="path1011"
       inkscape:path-effect="#path-effect1013"
       inkscape:original-d="M 66.22143,341.11549 C 90.714633,317.98369 115.20749,294.85154 139.7,271.71906"
       sodipodi:nodetypes="cc" />
    <path
       style="fill:none;stroke:#000000;stroke-width:0.385714;stroke-linecap:butt;stroke-linejoin:miter;stroke-miterlimit:4;stroke-dasharray:none;stroke-opacity:1;marker-end:url(#marker1072)"
       d="m 115.20714,259.47263 c -29.935368,0 -59.871084,0 -89.807139,0"
       id="path1039"
       inkscape:path-effect="#path-effect1041"
       inkscape:original-d="m 115.20714,259.47263 c -29.935368,3.5e-4 -59.871084,3.5e-4 -89.807139,0"
       sodipodi:nodetypes="cc" />
    <path
       style="fill:none;stroke:#000000;stroke-width:0.385714;stroke-linecap:butt;stroke-linejoin:miter;stroke-miterlimit:4;stroke-dasharray:none;stroke-opacity:1;marker-end:url(#marker6329)"
       d="M 115.20714,259.47263 C 97.064695,249.49429 78.921833,239.51571 60.778573,229.53692"
       id="path1043"
       inkscape:path-effect="#path-effect1045"
       inkscape:original-d="M 115.20714,259.47263 C 97.064649,249.49437 78.92179,239.51579 60.778573,229.53692"
       sodipodi:nodetypes="cc" />
    <path
       style="fill:none;fill-opacity:0.304833;stroke:#000000;stroke-width:0.385714;stroke-miterlimit:4;stroke-dasharray:1.54286, 1.54286;stroke-dashoffset:0"
       id="path1047"
       sodipodi:type="arc"
       sodipodi:cx="98.690887"
       sodipodi:cy="253.10687"
       sodipodi:rx="10.205358"
       sodipodi:ry="10.205358"
       sodipodi:start="2.468038"
       sodipodi:end="4.0018194"
       sodipodi:arc-type="arc"
       d="m 90.714285,259.47265 a 10.205358,10.205358 0 0 1 1.319999,-14.10134"
       sodipodi:open="true" />
    <path
       d="m 53.663129,291.69122 a 27.207434,27.207434 0 0 1 26.845804,22.89034"
       sodipodi:arc-type="arc"
       sodipodi:end="6.1238385"
       sodipodi:start="4.7130117"
       sodipodi:ry="27.207434"
       sodipodi:rx="27.207434"
       sodipodi:cy="318.89865"
       sodipodi:cx="53.646187"
       sodipodi:type="arc"
       id="path1047-0"
       style="fill:none;fill-opacity:0.304833;stroke:#000000;stroke-width:0.385714;stroke-miterlimit:4;stroke-dasharray:1.54286, 1.54286;stroke-dashoffset:0"
       sodipodi:open="true" />
    <g
       inkscape:label=""
       transform="matrix(1.1570391,0,0,1.1570391,-57.748299,138.55684)"
       id="g1095">
      <g
         id="g1952">
        <g
           id="g4990"
           style="fill:#000000;fill-opacity:1">
          <use
             height="100%"
             width="100%"
             id="use6444"
             y="81.962997"
             x="91.925003"
             xlink:href="#symbol7289" />
        </g>
      </g>
    </g>
    <g
       inkscape:label=""
       transform="matrix(1.1570391,0,0,1.1570391,-36.992832,194.48263)"
       id="g1476">
      <g
         id="g9177">
        <g
           id="g6806"
           style="fill:#000000;fill-opacity:1">
          <use
             height="100%"
             width="100%"
             id="use1256"
             y="81.962997"
             x="91.925003"
             xlink:href="#symbol4039" />
        </g>
        <g
           id="g9465"
           style="fill:#000000;fill-opacity:1">
          <use
             height="100%"
             width="100%"
             id="use3158"
             y="83.457001"
             x="96.601997"
             xlink:href="#symbol9929" />
        </g>
      </g>
    </g>
    <g
       inkscape:label=""
       transform="matrix(1.1570391,0,0,1.1570391,-90.906739,176.16014)"
       id="g1856">
      <g
         id="g6836">
        <g
           id="g3186"
           style="fill:#000000;fill-opacity:1">
          <use
             height="100%"
             width="100%"
             id="use4542"
             y="81.962997"
             x="91.925003"
             xlink:href="#symbol8066" />
          <use
             height="100%"
             width="100%"
             id="use9796"
             y="81.962997"
             x="95.357117"
             xlink:href="#symbol8585" />
        </g>
        <g
           id="g4438"
           style="fill:#000000;fill-opacity:1">
          <use
             height="100%"
             width="100%"
             id="use7025"
             y="81.962997"
             x="99.788483"
             xlink:href="#symbol4818" />
        </g>
      </g>
    </g>
    <g
       inkscape:label=""
       transform="matrix(1.1570391,0,0,1.1570391,-4.1219508,189.17433)"
       id="g2064">
      <g
         id="g4600">
        <g
           id="g8980"
           style="fill:#000000;fill-opacity:1">
          <use
             height="100%"
             width="100%"
             id="use9226"
             y="81.962997"
             x="91.925003"
             xlink:href="#symbol3012" />
          <use
             height="100%"
             width="100%"
             id="use4146"
             y="81.962997"
             x="97.110535"
             xlink:href="#symbol8556" />
        </g>
        <g
           id="g4381"
           style="fill:#000000;fill-opacity:1">
          <use
             height="100%"
             width="100%"
             id="use6077"
             y="83.457001"
             x="102.803"
             xlink:href="#symbol4501" />
        </g>
      </g>
    </g>
    <g
       inkscape:label=""
       transform="matrix(1.1570391,0,0,1.1570391,-36.136274,157.09206)"
       id="g2282">
      <g
         id="g4313">
        <g
           id="g4793"
           style="fill:#000000;fill-opacity:1">
          <use
             height="100%"
             width="100%"
             id="use9539"
             y="81.962997"
             x="91.925003"
             xlink:href="#symbol3927" />
        </g>
        <g
           id="g7523"
           style="fill:#000000;fill-opacity:1">
          <use
             height="100%"
             width="100%"
             id="use1099"
             y="83.457001"
             x="96.601997"
             xlink:href="#symbol3949" />
        </g>
      </g>
    </g>
    <g
       inkscape:label=""
       transform="matrix(1.2039772,0,0,1.1512577,-65.461589,185.77882)"
       id="g1090">
      <g
         id="g1247">
        <g
           id="g5307"
           style="fill:#000000;fill-opacity:1">
          <use
             height="100%"
             width="100%"
             id="use7492"
             y="81.962997"
             x="91.925003"
             xlink:href="#symbol6511" />
          <use
             height="100%"
             width="100%"
             id="use310"
             y="81.962997"
             x="97.110535"
             xlink:href="#symbol5184" />
        </g>
        <g
           id="g6678"
           style="fill:#000000;fill-opacity:1">
          <use
             height="100%"
             width="100%"
             id="use5247"
             y="83.457001"
             x="102.803"
             xlink:href="#symbol8685" />
        </g>
      </g>
    </g>
  </g>
</svg>
