<?xml version="1.0" encoding="UTF-8" standalone="no"?>
<svg
   xmlns:osb="http://www.openswatchbook.org/uri/2009/osb"
   xmlns:dc="http://purl.org/dc/elements/1.1/"
   xmlns:cc="http://creativecommons.org/ns#"
   xmlns:rdf="http://www.w3.org/1999/02/22-rdf-syntax-ns#"
   xmlns:svg="http://www.w3.org/2000/svg"
   xmlns="http://www.w3.org/2000/svg"
   xmlns:xlink="http://www.w3.org/1999/xlink"
   xmlns:sodipodi="http://sodipodi.sourceforge.net/DTD/sodipodi-0.dtd"
   xmlns:inkscape="http://www.inkscape.org/namespaces/inkscape"
   sodipodi:docname="shadowing_masking_function.svg"
   inkscape:version="1.0 (4035a4fb49, 2020-05-01)"
   id="svg8"
   version="1.1"
   viewBox="0 0 168.26498 66.269437"
   height="66.269432mm"
   width="168.26497mm">
  <sodipodi:namedview
     inkscape:window-maximized="0"
     inkscape:window-y="121"
     inkscape:window-x="211"
     inkscape:window-height="826"
     inkscape:window-width="1295"
     showgrid="true"
     inkscape:current-layer="layer1"
     inkscape:document-units="mm"
     inkscape:cy="48.464618"
     inkscape:cx="284.84834"
     inkscape:zoom="0.95406467"
     inkscape:pageshadow="2"
     inkscape:pageopacity="0.0"
     borderopacity="1.0"
     bordercolor="#666666"
     pagecolor="#ffffff"
     id="base"
     fit-margin-top="0"
     fit-margin-left="0"
     fit-margin-right="0"
     fit-margin-bottom="0"
     inkscape:document-rotation="0"
     showguides="true"
     inkscape:snap-global="false">
    <inkscape:grid
       originy="-84.346814"
       originx="-107.96004"
       type="xygrid"
       id="grid3721"
       empspacing="3" />
  </sodipodi:namedview>
  <defs
     id="defs2">
    <marker
       inkscape:isstock="true"
       style="overflow:visible"
       id="marker3181"
       refX="0"
       refY="0"
       orient="auto"
       inkscape:stockid="Arrow2Lend">
      <path
         inkscape:connector-curvature="0"
         transform="matrix(-1.1,0,0,-1.1,-1.1,0)"
         d="M 8.7185878,4.0337352 -2.2072895,0.01601326 8.7185884,-4.0017078 c -1.7454984,2.3720609 -1.7354408,5.6174519 -6e-7,8.035443 z"
         style="fill:#000000;fill-opacity:1;fill-rule:evenodd;stroke:#000000;stroke-width:0.625;stroke-linejoin:round;stroke-opacity:1"
         id="path3179" />
    </marker>
    <inkscape:path-effect
       only_selected="false"
       apply_with_weight="true"
       apply_no_weight="true"
       helper_size="0"
       steps="2"
       weight="33.333333"
       lpeversion="1"
       is_visible="true"
       id="path-effect3177"
       effect="bspline" />
    <inkscape:path-effect
       effect="bspline"
       id="path-effect3349"
       is_visible="true"
       lpeversion="1"
       weight="33.333333"
       steps="2"
       helper_size="0"
       apply_no_weight="true"
       apply_with_weight="true"
       only_selected="false" />
    <inkscape:path-effect
       effect="bspline"
       id="path-effect3345"
       is_visible="true"
       lpeversion="1"
       weight="33.333333"
       steps="2"
       helper_size="0"
       apply_no_weight="true"
       apply_with_weight="true"
       only_selected="false" />
    <inkscape:path-effect
       effect="bspline"
       id="path-effect3341"
       is_visible="true"
       lpeversion="1"
       weight="33.333333"
       steps="2"
       helper_size="0"
       apply_no_weight="true"
       apply_with_weight="true"
       only_selected="false" />
    <inkscape:path-effect
       effect="bspline"
       id="path-effect2546"
       is_visible="true"
       lpeversion="1"
       weight="33.333333"
       steps="2"
       helper_size="0"
       apply_no_weight="true"
       apply_with_weight="true"
       only_selected="false" />
    <inkscape:path-effect
       only_selected="false"
       apply_with_weight="true"
       apply_no_weight="true"
       helper_size="0"
       steps="2"
       weight="33.333333"
       lpeversion="1"
       is_visible="true"
       id="path-effect2499"
       effect="bspline" />
    <inkscape:path-effect
       effect="bspline"
       id="path-effect2439"
       is_visible="true"
       lpeversion="1"
       weight="33.333333"
       steps="2"
       helper_size="0"
       apply_no_weight="true"
       apply_with_weight="true"
       only_selected="false" />
    <inkscape:path-effect
       only_selected="false"
       apply_with_weight="true"
       apply_no_weight="true"
       helper_size="0"
       steps="2"
       weight="33.333333"
       lpeversion="1"
       is_visible="true"
       id="path-effect2420"
       effect="bspline" />
    <inkscape:path-effect
       effect="bspline"
       id="path-effect2401"
       is_visible="true"
       lpeversion="1"
       weight="33.333333"
       steps="2"
       helper_size="0"
       apply_no_weight="true"
       apply_with_weight="true"
       only_selected="false" />
    <inkscape:path-effect
       only_selected="false"
       apply_with_weight="true"
       apply_no_weight="true"
       helper_size="0"
       steps="2"
       weight="33.333333"
       lpeversion="1"
       is_visible="true"
       id="path-effect2353"
       effect="bspline" />
    <marker
       inkscape:collect="always"
       inkscape:stockid="Arrow2Lend"
       orient="auto"
       refY="0"
       refX="0"
       id="marker1217"
       style="overflow:visible"
       inkscape:isstock="true">
      <path
         id="path1215"
         style="fill:#000000;fill-opacity:1;fill-rule:evenodd;stroke:#000000;stroke-width:0.625;stroke-linejoin:round;stroke-opacity:1"
         d="M 8.7185878,4.0337352 -2.2072895,0.01601326 8.7185884,-4.0017078 c -1.7454984,2.3720609 -1.7354408,5.6174519 -6e-7,8.035443 z"
         transform="matrix(-1.1,0,0,-1.1,-1.1,0)"
         inkscape:connector-curvature="0" />
    </marker>
    <inkscape:path-effect
       only_selected="false"
       apply_with_weight="true"
       apply_no_weight="true"
       helper_size="0"
       steps="2"
       weight="33.333333"
       lpeversion="1"
       is_visible="true"
       id="path-effect954"
       effect="bspline" />
    <inkscape:path-effect
       only_selected="false"
       apply_with_weight="true"
       apply_no_weight="true"
       helper_size="0"
       steps="2"
       weight="33.333333"
       lpeversion="1"
       is_visible="true"
       id="path-effect935"
       effect="bspline" />
    <inkscape:path-effect
       effect="bspline"
       id="path-effect916"
       is_visible="true"
       lpeversion="1"
       weight="33.333333"
       steps="2"
       helper_size="0"
       apply_no_weight="true"
       apply_with_weight="true"
       only_selected="false" />
    <inkscape:path-effect
       only_selected="false"
       apply_with_weight="true"
       apply_no_weight="true"
       helper_size="0"
       steps="2"
       weight="33.333333"
       lpeversion="1"
       is_visible="true"
       id="path-effect1950"
       effect="bspline" />
    <linearGradient
       id="linearGradient3213"
       osb:paint="solid">
      <stop
         style="stop-color:#000000;stop-opacity:1;"
         offset="0"
         id="stop3211" />
    </linearGradient>
    <marker
       inkscape:isstock="true"
       style="overflow:visible"
       id="marker1217-9"
       refX="0"
       refY="0"
       orient="auto"
       inkscape:stockid="Arrow2Lend">
      <path
         inkscape:connector-curvature="0"
         transform="matrix(-1.1,0,0,-1.1,-1.1,0)"
         d="M 8.7185878,4.0337352 -2.2072895,0.01601326 8.7185884,-4.0017078 c -1.7454984,2.3720609 -1.7354408,5.6174519 -6e-7,8.035443 z"
         style="fill:#000000;fill-opacity:1;fill-rule:evenodd;stroke:#000000;stroke-width:0.625;stroke-linejoin:round;stroke-opacity:1"
         id="path1215-9" />
    </marker>
    <g
       id="g6085">
      <symbol
         overflow="visible"
         id="symbol7646">
        <path
           style="stroke:none"
           d=""
           id="path7863" />
      </symbol>
      <symbol
         overflow="visible"
         id="symbol2043">
        <path
           style="stroke:none"
           d="m 2.828125,-6.234375 c 0,-0.203125 -0.140625,-0.359375 -0.359375,-0.359375 -0.28125,0 -0.546875,0.265625 -0.546875,0.53125 0,0.1875 0.140625,0.359375 0.375,0.359375 0.234375,0 0.53125,-0.234375 0.53125,-0.53125 z m -0.75,3.75 c 0.109375,-0.28125 0.109375,-0.3125 0.21875,-0.578125 0.078125,-0.203125 0.125,-0.34375 0.125,-0.53125 0,-0.4375 -0.3125,-0.8125 -0.8125,-0.8125 -0.9375,0 -1.3125,1.453125 -1.3125,1.53125 0,0.109375 0.09375,0.109375 0.109375,0.109375 0.109375,0 0.109375,-0.03125 0.15625,-0.1875 0.28125,-0.9375 0.671875,-1.234375 1.015625,-1.234375 0.078125,0 0.25,0 0.25,0.3125 0,0.21875 -0.078125,0.421875 -0.109375,0.53125 -0.078125,0.25 -0.53125,1.40625 -0.6875,1.84375 -0.109375,0.25 -0.234375,0.578125 -0.234375,0.796875 0,0.46875 0.34375,0.8125 0.8125,0.8125 0.9375,0 1.3125,-1.4375 1.3125,-1.53125 0,-0.109375 -0.09375,-0.109375 -0.125,-0.109375 -0.09375,0 -0.09375,0.03125 -0.140625,0.1875 -0.1875,0.625 -0.515625,1.234375 -1.015625,1.234375 -0.171875,0 -0.25,-0.09375 -0.25,-0.328125 0,-0.25 0.0625,-0.390625 0.296875,-1 z m 0,0"
           id="path6878" />
      </symbol>
    </g>
    <g
       id="g4781">
      <symbol
         overflow="visible"
         id="symbol5054">
        <path
           style="stroke:none"
           d=""
           id="path9988" />
      </symbol>
      <symbol
         overflow="visible"
         id="symbol2331">
        <path
           style="stroke:none"
           d="m 4.671875,-2.71875 c 0,-1.046875 -0.6875,-1.6875 -1.59375,-1.6875 -1.328125,0 -2.671875,1.421875 -2.671875,2.828125 0,0.984375 0.671875,1.6875 1.59375,1.6875 1.328125,0 2.671875,-1.375 2.671875,-2.828125 z m -2.65625,2.609375 c -0.4375,0 -0.875,-0.3125 -0.875,-1.09375 0,-0.484375 0.265625,-1.5625 0.578125,-2.0625 0.5,-0.765625 1.078125,-0.921875 1.359375,-0.921875 0.578125,0 0.875,0.484375 0.875,1.078125 0,0.390625 -0.203125,1.4375 -0.578125,2.078125 -0.359375,0.578125 -0.90625,0.921875 -1.359375,0.921875 z m 0,0"
           id="path6489" />
      </symbol>
    </g>
    <g
       id="g7589">
      <symbol
         overflow="visible"
         id="symbol7089">
        <path
           style="stroke:none"
           d=""
           id="path6800" />
      </symbol>
      <symbol
         overflow="visible"
         id="symbol3278">
        <path
           style="stroke:none"
           d="m 3.296875,2.390625 c 0,-0.03125 0,-0.046875 -0.171875,-0.21875 C 1.890625,0.921875 1.5625,-0.96875 1.5625,-2.5 c 0,-1.734375 0.375,-3.46875 1.609375,-4.703125 0.125,-0.125 0.125,-0.140625 0.125,-0.171875 0,-0.078125 -0.03125,-0.109375 -0.09375,-0.109375 -0.109375,0 -1,0.6875 -1.59375,1.953125 -0.5,1.09375 -0.625,2.203125 -0.625,3.03125 0,0.78125 0.109375,1.984375 0.65625,3.125 C 2.25,1.84375 3.09375,2.5 3.203125,2.5 c 0.0625,0 0.09375,-0.03125 0.09375,-0.109375 z m 0,0"
           id="path3510" />
      </symbol>
      <symbol
         overflow="visible"
         id="symbol3506">
        <path
           style="stroke:none"
           d="m 2.875,-2.5 c 0,-0.765625 -0.109375,-1.96875 -0.65625,-3.109375 -0.59375,-1.21875 -1.453125,-1.875 -1.546875,-1.875 -0.0625,0 -0.109375,0.046875 -0.109375,0.109375 0,0.03125 0,0.046875 0.1875,0.234375 0.984375,0.984375 1.546875,2.5625 1.546875,4.640625 0,1.71875 -0.359375,3.46875 -1.59375,4.71875 C 0.5625,2.34375 0.5625,2.359375 0.5625,2.390625 0.5625,2.453125 0.609375,2.5 0.671875,2.5 0.765625,2.5 1.671875,1.8125 2.25,0.546875 2.765625,-0.546875 2.875,-1.65625 2.875,-2.5 Z m 0,0"
           id="path8746" />
      </symbol>
      <symbol
         overflow="visible"
         id="symbol1297">
        <path
           style="stroke:none"
           d=""
           id="path3901" />
      </symbol>
      <symbol
         overflow="visible"
         id="symbol7724">
        <path
           style="stroke:none"
           d="m 4.671875,-2.71875 c 0,-1.046875 -0.6875,-1.6875 -1.59375,-1.6875 -1.328125,0 -2.671875,1.421875 -2.671875,2.828125 0,0.984375 0.671875,1.6875 1.59375,1.6875 1.328125,0 2.671875,-1.375 2.671875,-2.828125 z m -2.65625,2.609375 c -0.4375,0 -0.875,-0.3125 -0.875,-1.09375 0,-0.484375 0.265625,-1.5625 0.578125,-2.0625 0.5,-0.765625 1.078125,-0.921875 1.359375,-0.921875 0.578125,0 0.875,0.484375 0.875,1.078125 0,0.390625 -0.203125,1.4375 -0.578125,2.078125 -0.359375,0.578125 -0.90625,0.921875 -1.359375,0.921875 z m 0,0"
           id="path2975" />
      </symbol>
      <symbol
         overflow="visible"
         id="symbol8555">
        <path
           style="stroke:none"
           d="m 0.875,-0.59375 c -0.03125,0.15625 -0.09375,0.390625 -0.09375,0.4375 0,0.171875 0.140625,0.265625 0.296875,0.265625 0.125,0 0.296875,-0.078125 0.375,-0.28125 0,-0.015625 0.125,-0.484375 0.1875,-0.734375 l 0.21875,-0.890625 C 1.90625,-2.03125 1.96875,-2.25 2.03125,-2.46875 c 0.03125,-0.171875 0.109375,-0.46875 0.125,-0.5 0.140625,-0.3125 0.671875,-1.21875 1.625,-1.21875 0.453125,0 0.53125,0.375 0.53125,0.703125 0,0.609375 -0.484375,1.890625 -0.640625,2.3125 C 3.578125,-0.9375 3.5625,-0.8125 3.5625,-0.703125 c 0,0.46875 0.359375,0.8125 0.828125,0.8125 0.9375,0 1.296875,-1.453125 1.296875,-1.53125 0,-0.109375 -0.078125,-0.109375 -0.109375,-0.109375 -0.109375,0 -0.109375,0.03125 -0.15625,0.1875 -0.203125,0.671875 -0.53125,1.234375 -1.015625,1.234375 -0.171875,0 -0.234375,-0.09375 -0.234375,-0.328125 0,-0.25 0.078125,-0.484375 0.171875,-0.703125 0.1875,-0.53125 0.609375,-1.625 0.609375,-2.203125 0,-0.65625 -0.421875,-1.0625 -1.140625,-1.0625 -0.90625,0 -1.390625,0.640625 -1.5625,0.875 -0.046875,-0.5625 -0.453125,-0.875 -0.921875,-0.875 -0.453125,0 -0.640625,0.390625 -0.734375,0.5625 C 0.421875,-3.5 0.296875,-2.90625 0.296875,-2.875 c 0,0.109375 0.09375,0.109375 0.109375,0.109375 0.109375,0 0.109375,-0.015625 0.171875,-0.234375 0.171875,-0.703125 0.375,-1.1875 0.734375,-1.1875 0.1875,0 0.296875,0.125 0.296875,0.453125 0,0.21875 -0.03125,0.328125 -0.15625,0.84375 z m 0,0"
           id="path1976" />
      </symbol>
      <symbol
         overflow="visible"
         id="symbol597">
        <path
           style="stroke:none"
           d="m 5.15625,-3.71875 c 0.140625,0 0.5,0 0.5,-0.34375 0,-0.234375 -0.21875,-0.234375 -0.390625,-0.234375 h -2.28125 c -1.5,0 -2.609375,1.640625 -2.609375,2.828125 0,0.875 0.59375,1.578125 1.5,1.578125 1.171875,0 2.5,-1.203125 2.5,-2.734375 0,-0.171875 0,-0.65625 -0.3125,-1.09375 z M 1.890625,-0.109375 C 1.390625,-0.109375 1,-0.46875 1,-1.1875 c 0,-0.296875 0.109375,-1.109375 0.46875,-1.703125 0.421875,-0.6875 1.015625,-0.828125 1.359375,-0.828125 0.828125,0 0.90625,0.65625 0.90625,0.96875 0,0.46875 -0.203125,1.28125 -0.53125,1.796875 -0.390625,0.578125 -0.9375,0.84375 -1.3125,0.84375 z m 0,0"
           id="path5485" />
      </symbol>
      <symbol
         overflow="visible"
         id="symbol144">
        <path
           style="stroke:none"
           d=""
           id="path550" />
      </symbol>
      <symbol
         overflow="visible"
         id="symbol1864">
        <path
           style="stroke:none"
           d="m 1.90625,-2.5 c 0,-0.28125 -0.234375,-0.515625 -0.515625,-0.515625 -0.296875,0 -0.53125,0.234375 -0.53125,0.515625 0,0.296875 0.234375,0.53125 0.53125,0.53125 0.28125,0 0.515625,-0.234375 0.515625,-0.53125 z m 0,0"
           id="path4498" />
      </symbol>
      <symbol
         overflow="visible"
         id="symbol3893">
        <path
           style="stroke:none"
           d=""
           id="path8267" />
      </symbol>
      <symbol
         overflow="visible"
         id="symbol4943">
        <path
           style="stroke:none"
           d="m 5.734375,-2.109375 c 0,-0.609375 -0.3125,-0.96875 -1.046875,-0.96875 -0.5625,0 -0.9375,0.296875 -1.125,0.65625 -0.140625,-0.5 -0.515625,-0.65625 -1.015625,-0.65625 -0.578125,0 -0.9375,0.3125 -1.140625,0.6875 v -0.6875 L 0.375,-3 v 0.25 c 0.46875,0 0.53125,0.046875 0.53125,0.390625 v 1.8125 C 0.90625,-0.25 0.828125,-0.25 0.375,-0.25 V 0 C 0.390625,0 0.875,-0.03125 1.171875,-0.03125 1.421875,-0.03125 1.90625,0 1.96875,0 v -0.25 c -0.453125,0 -0.515625,0 -0.515625,-0.296875 V -1.8125 c 0,-0.71875 0.578125,-1.0625 1.03125,-1.0625 0.484375,0 0.546875,0.375 0.546875,0.734375 v 1.59375 C 3.03125,-0.25 2.96875,-0.25 2.515625,-0.25 V 0 C 2.53125,0 3.015625,-0.03125 3.3125,-0.03125 3.5625,-0.03125 4.046875,0 4.109375,0 v -0.25 c -0.453125,0 -0.515625,0 -0.515625,-0.296875 V -1.8125 c 0,-0.71875 0.578125,-1.0625 1.03125,-1.0625 0.484375,0 0.546875,0.375 0.546875,0.734375 v 1.59375 C 5.171875,-0.25 5.109375,-0.25 4.65625,-0.25 V 0 c 0.015625,0 0.5,-0.03125 0.796875,-0.03125 C 5.703125,-0.03125 6.1875,0 6.25,0 v -0.25 c -0.453125,0 -0.515625,0 -0.515625,-0.296875 z m 0,0"
           id="path1703" />
      </symbol>
      <symbol
         overflow="visible"
         id="symbol4082">
        <path
           style="stroke:none"
           d="m 2.515625,-3 v 0.25 c 0.46875,0 0.515625,0.046875 0.515625,0.390625 v 1.203125 c 0,0.609375 -0.390625,1.03125 -0.921875,1.03125 -0.625,0 -0.65625,-0.296875 -0.65625,-0.65625 V -3.078125 L 0.375,-3 v 0.25 c 0.53125,0 0.53125,0.03125 0.53125,0.640625 V -1.0625 c 0,0.484375 0,1.125 1.15625,1.125 0.15625,0 0.65625,0 1,-0.578125 V 0.0625 L 4.109375,0 v -0.25 c -0.46875,0 -0.515625,-0.046875 -0.515625,-0.390625 v -2.4375 z m 0,0"
           id="path2169" />
      </symbol>
      <symbol
         overflow="visible"
         id="symbol3309">
        <path
           style="stroke:none"
           d="m 1.4375,-4.84375 -1.046875,0.078125 v 0.25 c 0.46875,0 0.515625,0.0625 0.515625,0.390625 v 3.578125 C 0.90625,-0.25 0.84375,-0.25 0.390625,-0.25 V 0 c 0.015625,0 0.5,-0.03125 0.78125,-0.03125 0.265625,0 0.515625,0.015625 0.78125,0.03125 V -0.25 C 1.5,-0.25 1.4375,-0.25 1.4375,-0.546875 Z m 0,0"
           id="path3725" />
      </symbol>
      <symbol
         overflow="visible"
         id="symbol6710">
        <path
           style="stroke:none"
           d="M 1.40625,-2.75 H 2.484375 V -3 H 1.40625 v -1.28125 h -0.25 c 0,0.625 -0.28125,1.3125 -0.953125,1.328125 V -2.75 H 0.84375 v 1.875 c 0,0.78125 0.59375,0.9375 0.984375,0.9375 0.46875,0 0.78125,-0.390625 0.78125,-0.9375 V -1.265625 H 2.375 v 0.375 c 0,0.484375 -0.21875,0.734375 -0.5,0.734375 -0.46875,0 -0.46875,-0.578125 -0.46875,-0.703125 z m 0,0"
           id="path4787" />
      </symbol>
      <symbol
         overflow="visible"
         id="symbol1554">
        <path
           style="stroke:none"
           d="m 1.46875,-4.296875 c 0,-0.203125 -0.171875,-0.40625 -0.40625,-0.40625 -0.203125,0 -0.390625,0.171875 -0.390625,0.40625 0,0.25 0.203125,0.40625 0.390625,0.40625 0.234375,0 0.40625,-0.171875 0.40625,-0.40625 z M 0.40625,-3 v 0.25 c 0.4375,0 0.5,0.046875 0.5,0.390625 v 1.8125 C 0.90625,-0.25 0.84375,-0.25 0.390625,-0.25 V 0 c 0.015625,0 0.5,-0.03125 0.78125,-0.03125 0.25,0 0.5,0.015625 0.734375,0.03125 V -0.25 C 1.5,-0.25 1.4375,-0.25 1.4375,-0.546875 v -2.53125 z m 0,0"
           id="path1358" />
      </symbol>
      <symbol
         overflow="visible"
         id="symbol7014">
        <path
           style="stroke:none"
           d=""
           id="path9973" />
      </symbol>
      <symbol
         overflow="visible"
         id="symbol526">
        <path
           style="stroke:none"
           d="m 1.640625,-1.40625 c 0,-0.046875 0.171875,-0.671875 0.171875,-0.703125 0.015625,-0.0625 0.21875,-0.40625 0.453125,-0.578125 0.0625,-0.046875 0.25,-0.1875 0.5625,-0.1875 0.0625,0 0.234375,0 0.375,0.09375 -0.21875,0.0625 -0.296875,0.265625 -0.296875,0.390625 0,0.140625 0.109375,0.25 0.265625,0.25 0.171875,0 0.390625,-0.125 0.390625,-0.421875 0,-0.359375 -0.375,-0.515625 -0.734375,-0.515625 -0.359375,0 -0.671875,0.15625 -0.984375,0.5 -0.125,-0.421875 -0.546875,-0.5 -0.71875,-0.5 -0.25,0 -0.421875,0.171875 -0.546875,0.359375 -0.15625,0.265625 -0.25,0.671875 -0.25,0.71875 0,0.078125 0.09375,0.078125 0.125,0.078125 0.09375,0 0.09375,-0.015625 0.140625,-0.203125 0.109375,-0.421875 0.25,-0.75 0.515625,-0.75 0.1875,0 0.234375,0.15625 0.234375,0.34375 0,0.125 -0.0625,0.390625 -0.125,0.578125 -0.046875,0.1875 -0.109375,0.46875 -0.140625,0.625 L 0.84375,-0.4375 C 0.828125,-0.34375 0.78125,-0.171875 0.78125,-0.15625 0.78125,0 0.90625,0.0625 1.015625,0.0625 1.125,0.0625 1.265625,0 1.3125,-0.125 1.328125,-0.171875 1.40625,-0.484375 1.453125,-0.65625 Z m 0,0"
           id="path5667" />
      </symbol>
    </g>
    <g
       id="g8483">
      <symbol
         overflow="visible"
         id="symbol6995">
        <path
           style="stroke:none"
           d=""
           id="path7244" />
      </symbol>
      <symbol
         overflow="visible"
         id="symbol2706">
        <path
           style="stroke:none"
           d="m 3.296875,2.390625 c 0,-0.03125 0,-0.046875 -0.171875,-0.21875 C 1.890625,0.921875 1.5625,-0.96875 1.5625,-2.5 c 0,-1.734375 0.375,-3.46875 1.609375,-4.703125 0.125,-0.125 0.125,-0.140625 0.125,-0.171875 0,-0.078125 -0.03125,-0.109375 -0.09375,-0.109375 -0.109375,0 -1,0.6875 -1.59375,1.953125 -0.5,1.09375 -0.625,2.203125 -0.625,3.03125 0,0.78125 0.109375,1.984375 0.65625,3.125 C 2.25,1.84375 3.09375,2.5 3.203125,2.5 c 0.0625,0 0.09375,-0.03125 0.09375,-0.109375 z m 0,0"
           id="path2433" />
      </symbol>
      <symbol
         overflow="visible"
         id="symbol5821">
        <path
           style="stroke:none"
           d="m 2.875,-2.5 c 0,-0.765625 -0.109375,-1.96875 -0.65625,-3.109375 -0.59375,-1.21875 -1.453125,-1.875 -1.546875,-1.875 -0.0625,0 -0.109375,0.046875 -0.109375,0.109375 0,0.03125 0,0.046875 0.1875,0.234375 0.984375,0.984375 1.546875,2.5625 1.546875,4.640625 0,1.71875 -0.359375,3.46875 -1.59375,4.71875 C 0.5625,2.34375 0.5625,2.359375 0.5625,2.390625 0.5625,2.453125 0.609375,2.5 0.671875,2.5 0.765625,2.5 1.671875,1.8125 2.25,0.546875 2.765625,-0.546875 2.875,-1.65625 2.875,-2.5 Z m 0,0"
           id="path4575" />
      </symbol>
      <symbol
         overflow="visible"
         id="symbol9419">
        <path
           style="stroke:none"
           d=""
           id="path8639" />
      </symbol>
      <symbol
         overflow="visible"
         id="symbol5414">
        <path
           style="stroke:none"
           d="m 4.671875,-2.71875 c 0,-1.046875 -0.6875,-1.6875 -1.59375,-1.6875 -1.328125,0 -2.671875,1.421875 -2.671875,2.828125 0,0.984375 0.671875,1.6875 1.59375,1.6875 1.328125,0 2.671875,-1.375 2.671875,-2.828125 z m -2.65625,2.609375 c -0.4375,0 -0.875,-0.3125 -0.875,-1.09375 0,-0.484375 0.265625,-1.5625 0.578125,-2.0625 0.5,-0.765625 1.078125,-0.921875 1.359375,-0.921875 0.578125,0 0.875,0.484375 0.875,1.078125 0,0.390625 -0.203125,1.4375 -0.578125,2.078125 -0.359375,0.578125 -0.90625,0.921875 -1.359375,0.921875 z m 0,0"
           id="path1667" />
      </symbol>
      <symbol
         overflow="visible"
         id="symbol3626">
        <path
           style="stroke:none"
           d="m 0.875,-0.59375 c -0.03125,0.15625 -0.09375,0.390625 -0.09375,0.4375 0,0.171875 0.140625,0.265625 0.296875,0.265625 0.125,0 0.296875,-0.078125 0.375,-0.28125 0,-0.015625 0.125,-0.484375 0.1875,-0.734375 l 0.21875,-0.890625 C 1.90625,-2.03125 1.96875,-2.25 2.03125,-2.46875 c 0.03125,-0.171875 0.109375,-0.46875 0.125,-0.5 0.140625,-0.3125 0.671875,-1.21875 1.625,-1.21875 0.453125,0 0.53125,0.375 0.53125,0.703125 0,0.609375 -0.484375,1.890625 -0.640625,2.3125 C 3.578125,-0.9375 3.5625,-0.8125 3.5625,-0.703125 c 0,0.46875 0.359375,0.8125 0.828125,0.8125 0.9375,0 1.296875,-1.453125 1.296875,-1.53125 0,-0.109375 -0.078125,-0.109375 -0.109375,-0.109375 -0.109375,0 -0.109375,0.03125 -0.15625,0.1875 -0.203125,0.671875 -0.53125,1.234375 -1.015625,1.234375 -0.171875,0 -0.234375,-0.09375 -0.234375,-0.328125 0,-0.25 0.078125,-0.484375 0.171875,-0.703125 0.1875,-0.53125 0.609375,-1.625 0.609375,-2.203125 0,-0.65625 -0.421875,-1.0625 -1.140625,-1.0625 -0.90625,0 -1.390625,0.640625 -1.5625,0.875 -0.046875,-0.5625 -0.453125,-0.875 -0.921875,-0.875 -0.453125,0 -0.640625,0.390625 -0.734375,0.5625 C 0.421875,-3.5 0.296875,-2.90625 0.296875,-2.875 c 0,0.109375 0.09375,0.109375 0.109375,0.109375 0.109375,0 0.109375,-0.015625 0.171875,-0.234375 0.171875,-0.703125 0.375,-1.1875 0.734375,-1.1875 0.1875,0 0.296875,0.125 0.296875,0.453125 0,0.21875 -0.03125,0.328125 -0.15625,0.84375 z m 0,0"
           id="path9147" />
      </symbol>
      <symbol
         overflow="visible"
         id="symbol4493">
        <path
           style="stroke:none"
           d="m 5.15625,-3.71875 c 0.140625,0 0.5,0 0.5,-0.34375 0,-0.234375 -0.21875,-0.234375 -0.390625,-0.234375 h -2.28125 c -1.5,0 -2.609375,1.640625 -2.609375,2.828125 0,0.875 0.59375,1.578125 1.5,1.578125 1.171875,0 2.5,-1.203125 2.5,-2.734375 0,-0.171875 0,-0.65625 -0.3125,-1.09375 z M 1.890625,-0.109375 C 1.390625,-0.109375 1,-0.46875 1,-1.1875 c 0,-0.296875 0.109375,-1.109375 0.46875,-1.703125 0.421875,-0.6875 1.015625,-0.828125 1.359375,-0.828125 0.828125,0 0.90625,0.65625 0.90625,0.96875 0,0.46875 -0.203125,1.28125 -0.53125,1.796875 -0.390625,0.578125 -0.9375,0.84375 -1.3125,0.84375 z m 0,0"
           id="path7798" />
      </symbol>
      <symbol
         overflow="visible"
         id="symbol2280">
        <path
           style="stroke:none"
           d=""
           id="path9454" />
      </symbol>
      <symbol
         overflow="visible"
         id="symbol7055">
        <path
           style="stroke:none"
           d="m 1.90625,-2.5 c 0,-0.28125 -0.234375,-0.515625 -0.515625,-0.515625 -0.296875,0 -0.53125,0.234375 -0.53125,0.515625 0,0.296875 0.234375,0.53125 0.53125,0.53125 0.28125,0 0.515625,-0.234375 0.515625,-0.53125 z m 0,0"
           id="path4166" />
      </symbol>
      <symbol
         overflow="visible"
         id="symbol5083">
        <path
           style="stroke:none"
           d=""
           id="path1304" />
      </symbol>
      <symbol
         overflow="visible"
         id="symbol2072">
        <path
           style="stroke:none"
           d="m 2.640625,-2.921875 c 0,-0.125 0,-0.1875 -0.09375,-0.1875 -0.03125,0 -0.046875,0 -0.140625,0.078125 -0.015625,0.015625 -0.078125,0.078125 -0.125,0.109375 -0.21875,-0.140625 -0.46875,-0.1875 -0.734375,-0.1875 -1,0 -1.234375,0.53125 -1.234375,0.875 0,0.21875 0.09375,0.40625 0.265625,0.546875 0.265625,0.21875 0.53125,0.265625 0.96875,0.34375 0.34375,0.0625 0.90625,0.15625 0.90625,0.625 0,0.265625 -0.1875,0.59375 -0.859375,0.59375 -0.671875,0 -0.90625,-0.4375 -1.03125,-0.90625 -0.03125,-0.09375 -0.03125,-0.125 -0.125,-0.125 -0.125,0 -0.125,0.046875 -0.125,0.1875 v 0.859375 C 0.3125,0 0.3125,0.0625 0.40625,0.0625 0.46875,0.0625 0.609375,-0.078125 0.75,-0.234375 1.046875,0.0625 1.421875,0.0625 1.59375,0.0625 c 0.90625,0 1.25,-0.484375 1.25,-0.96875 0,-0.265625 -0.125,-0.484375 -0.3125,-0.640625 -0.265625,-0.25 -0.578125,-0.3125 -0.828125,-0.34375 -0.546875,-0.109375 -1,-0.1875 -1,-0.5625 0,-0.21875 0.1875,-0.484375 0.84375,-0.484375 0.8125,0 0.84375,0.5625 0.859375,0.765625 0,0.078125 0.09375,0.078125 0.109375,0.078125 0.125,0 0.125,-0.046875 0.125,-0.1875 z m 0,0"
           id="path5174" />
      </symbol>
      <symbol
         overflow="visible"
         id="symbol5000">
        <path
           style="stroke:none"
           d="m 1.46875,-4.296875 c 0,-0.203125 -0.171875,-0.40625 -0.40625,-0.40625 -0.203125,0 -0.390625,0.171875 -0.390625,0.40625 0,0.25 0.203125,0.40625 0.390625,0.40625 0.234375,0 0.40625,-0.171875 0.40625,-0.40625 z M 0.40625,-3 v 0.25 c 0.4375,0 0.5,0.046875 0.5,0.390625 v 1.8125 C 0.90625,-0.25 0.84375,-0.25 0.390625,-0.25 V 0 c 0.015625,0 0.5,-0.03125 0.78125,-0.03125 0.25,0 0.5,0.015625 0.734375,0.03125 V -0.25 C 1.5,-0.25 1.4375,-0.25 1.4375,-0.546875 v -2.53125 z m 0,0"
           id="path2908" />
      </symbol>
      <symbol
         overflow="visible"
         id="symbol8157">
        <path
           style="stroke:none"
           d="m 3.59375,-2.109375 c 0,-0.609375 -0.296875,-0.96875 -1.046875,-0.96875 -0.578125,0 -0.9375,0.3125 -1.140625,0.6875 v -0.6875 L 0.375,-3 v 0.25 c 0.46875,0 0.53125,0.046875 0.53125,0.390625 v 1.8125 C 0.90625,-0.25 0.828125,-0.25 0.375,-0.25 V 0 C 0.390625,0 0.875,-0.03125 1.171875,-0.03125 1.421875,-0.03125 1.90625,0 1.96875,0 v -0.25 c -0.453125,0 -0.515625,0 -0.515625,-0.296875 V -1.8125 c 0,-0.71875 0.578125,-1.0625 1.03125,-1.0625 0.484375,0 0.546875,0.375 0.546875,0.734375 v 1.59375 C 3.03125,-0.25 2.96875,-0.25 2.515625,-0.25 V 0 C 2.53125,0 3.015625,-0.03125 3.3125,-0.03125 3.5625,-0.03125 4.046875,0 4.109375,0 v -0.25 c -0.453125,0 -0.515625,0 -0.515625,-0.296875 z m 0,0"
           id="path6173" />
      </symbol>
      <symbol
         overflow="visible"
         id="symbol7421">
        <path
           style="stroke:none"
           d="m 1,-1.234375 c 0.109375,0.0625 0.359375,0.203125 0.765625,0.203125 C 2.484375,-1.03125 3,-1.5 3,-2.046875 3,-2.328125 2.875,-2.53125 2.703125,-2.71875 c 0.328125,-0.21875 0.59375,-0.234375 0.71875,-0.234375 -0.03125,0.03125 -0.0625,0.0625 -0.0625,0.171875 0,0.140625 0.09375,0.21875 0.21875,0.21875 0.09375,0 0.21875,-0.0625 0.21875,-0.21875 0,-0.171875 -0.125,-0.359375 -0.40625,-0.359375 -0.109375,0 -0.484375,0.015625 -0.8125,0.3125 -0.203125,-0.140625 -0.5,-0.25 -0.8125,-0.25 -0.71875,0 -1.234375,0.484375 -1.234375,1.03125 0,0.265625 0.140625,0.515625 0.328125,0.703125 -0.046875,0.0625 -0.203125,0.296875 -0.203125,0.5625 0,0.09375 0.015625,0.421875 0.296875,0.625 -0.3125,0.09375 -0.6875,0.328125 -0.6875,0.6875 0,0.515625 0.765625,0.890625 1.71875,0.890625 0.875,0 1.703125,-0.34375 1.703125,-0.90625 0,-0.203125 -0.078125,-0.578125 -0.46875,-0.78125 -0.40625,-0.21875 -0.828125,-0.21875 -1.5,-0.21875 -0.15625,0 -0.40625,0 -0.453125,-0.015625 C 1.03125,-0.546875 0.90625,-0.75 0.90625,-0.953125 0.90625,-1.125 0.96875,-1.1875 1,-1.234375 Z m 0.765625,0 c -0.671875,0 -0.671875,-0.671875 -0.671875,-0.8125 0,-0.109375 0,-0.390625 0.125,-0.578125 0.109375,-0.109375 0.296875,-0.234375 0.546875,-0.234375 0.6875,0 0.6875,0.671875 0.6875,0.8125 0,0.109375 0,0.390625 -0.140625,0.5625 -0.109375,0.125 -0.296875,0.25 -0.546875,0.25 z m 0,1.21875 c 0.625,0 1.5,0 1.5,0.546875 0,0.375 -0.5625,0.6875 -1.28125,0.6875 -0.734375,0 -1.28125,-0.328125 -1.28125,-0.6875 0,-0.25 0.21875,-0.546875 0.65625,-0.546875 z m 0,0"
           id="path5034" />
      </symbol>
      <symbol
         overflow="visible"
         id="symbol2098">
        <path
           style="stroke:none"
           d="m 1.4375,-4.84375 -1.046875,0.078125 v 0.25 c 0.46875,0 0.515625,0.0625 0.515625,0.390625 v 3.578125 C 0.90625,-0.25 0.84375,-0.25 0.390625,-0.25 V 0 c 0.015625,0 0.5,-0.03125 0.78125,-0.03125 0.265625,0 0.515625,0.015625 0.78125,0.03125 V -0.25 C 1.5,-0.25 1.4375,-0.25 1.4375,-0.546875 Z m 0,0"
           id="path7475" />
      </symbol>
      <symbol
         overflow="visible"
         id="symbol1826">
        <path
           style="stroke:none"
           d="m 3.0625,-1.59375 c 0.15625,0 0.203125,0 0.203125,-0.140625 0,-0.625 -0.34375,-1.375 -1.390625,-1.375 -0.90625,0 -1.609375,0.71875 -1.609375,1.578125 0,0.890625 0.78125,1.59375 1.703125,1.59375 0.9375,0 1.296875,-0.75 1.296875,-0.90625 0,-0.015625 -0.015625,-0.09375 -0.125,-0.09375 -0.09375,0 -0.109375,0.046875 -0.125,0.109375 -0.21875,0.5625 -0.75,0.671875 -1,0.671875 C 1.6875,-0.15625 1.375,-0.296875 1.171875,-0.5625 0.90625,-0.890625 0.90625,-1.3125 0.90625,-1.59375 Z M 0.90625,-1.765625 C 0.984375,-2.75 1.609375,-2.90625 1.875,-2.90625 c 0.859375,0 0.890625,0.96875 0.90625,1.140625 z m 0,0"
           id="path8206" />
      </symbol>
      <symbol
         overflow="visible"
         id="symbol6296">
        <path
           style="stroke:none"
           d=""
           id="path3884" />
      </symbol>
      <symbol
         overflow="visible"
         id="symbol2051">
        <path
           style="stroke:none"
           d="m 1.640625,-1.40625 c 0,-0.046875 0.171875,-0.671875 0.171875,-0.703125 0.015625,-0.0625 0.21875,-0.40625 0.453125,-0.578125 0.0625,-0.046875 0.25,-0.1875 0.5625,-0.1875 0.0625,0 0.234375,0 0.375,0.09375 -0.21875,0.0625 -0.296875,0.265625 -0.296875,0.390625 0,0.140625 0.109375,0.25 0.265625,0.25 0.171875,0 0.390625,-0.125 0.390625,-0.421875 0,-0.359375 -0.375,-0.515625 -0.734375,-0.515625 -0.359375,0 -0.671875,0.15625 -0.984375,0.5 -0.125,-0.421875 -0.546875,-0.5 -0.71875,-0.5 -0.25,0 -0.421875,0.171875 -0.546875,0.359375 -0.15625,0.265625 -0.25,0.671875 -0.25,0.71875 0,0.078125 0.09375,0.078125 0.125,0.078125 0.09375,0 0.09375,-0.015625 0.140625,-0.203125 0.109375,-0.421875 0.25,-0.75 0.515625,-0.75 0.1875,0 0.234375,0.15625 0.234375,0.34375 0,0.125 -0.0625,0.390625 -0.125,0.578125 -0.046875,0.1875 -0.109375,0.46875 -0.140625,0.625 L 0.84375,-0.4375 C 0.828125,-0.34375 0.78125,-0.171875 0.78125,-0.15625 0.78125,0 0.90625,0.0625 1.015625,0.0625 1.125,0.0625 1.265625,0 1.3125,-0.125 1.328125,-0.171875 1.40625,-0.484375 1.453125,-0.65625 Z m 0,0"
           id="path5334" />
      </symbol>
    </g>
    <g
       id="g2761">
      <symbol
         id="symbol2524"
         overflow="visible">
        <path
           id="path3475"
           d=""
           style="stroke:none;" />
      </symbol>
      <symbol
         id="symbol3120"
         overflow="visible">
        <path
           id="path9124"
           d="M 0.875 -0.59375 C 0.84375 -0.4375 0.78125 -0.203125 0.78125 -0.15625 C 0.78125 0.015625 0.921875 0.109375 1.078125 0.109375 C 1.203125 0.109375 1.375 0.03125 1.453125 -0.171875 C 1.453125 -0.1875 1.578125 -0.65625 1.640625 -0.90625 L 1.859375 -1.796875 C 1.90625 -2.03125 1.96875 -2.25 2.03125 -2.46875 C 2.0625 -2.640625 2.140625 -2.9375 2.15625 -2.96875 C 2.296875 -3.28125 2.828125 -4.1875 3.78125 -4.1875 C 4.234375 -4.1875 4.3125 -3.8125 4.3125 -3.484375 C 4.3125 -2.875 3.828125 -1.59375 3.671875 -1.171875 C 3.578125 -0.9375 3.5625 -0.8125 3.5625 -0.703125 C 3.5625 -0.234375 3.921875 0.109375 4.390625 0.109375 C 5.328125 0.109375 5.6875 -1.34375 5.6875 -1.421875 C 5.6875 -1.53125 5.609375 -1.53125 5.578125 -1.53125 C 5.46875 -1.53125 5.46875 -1.5 5.421875 -1.34375 C 5.21875 -0.671875 4.890625 -0.109375 4.40625 -0.109375 C 4.234375 -0.109375 4.171875 -0.203125 4.171875 -0.4375 C 4.171875 -0.6875 4.25 -0.921875 4.34375 -1.140625 C 4.53125 -1.671875 4.953125 -2.765625 4.953125 -3.34375 C 4.953125 -4 4.53125 -4.40625 3.8125 -4.40625 C 2.90625 -4.40625 2.421875 -3.765625 2.25 -3.53125 C 2.203125 -4.09375 1.796875 -4.40625 1.328125 -4.40625 C 0.875 -4.40625 0.6875 -4.015625 0.59375 -3.84375 C 0.421875 -3.5 0.296875 -2.90625 0.296875 -2.875 C 0.296875 -2.765625 0.390625 -2.765625 0.40625 -2.765625 C 0.515625 -2.765625 0.515625 -2.78125 0.578125 -3 C 0.75 -3.703125 0.953125 -4.1875 1.3125 -4.1875 C 1.5 -4.1875 1.609375 -4.0625 1.609375 -3.734375 C 1.609375 -3.515625 1.578125 -3.40625 1.453125 -2.890625 Z M 0.875 -0.59375 "
           style="stroke:none;" />
      </symbol>
    </g>
  </defs>
  <metadata
     id="metadata5">
    <rdf:RDF>
      <cc:Work
         rdf:about="">
        <dc:format>image/svg+xml</dc:format>
        <dc:type
           rdf:resource="http://purl.org/dc/dcmitype/StillImage" />
        <dc:title />
      </cc:Work>
    </rdf:RDF>
  </metadata>
  <g
     inkscape:label="レイヤー 1"
     inkscape:groupmode="layer"
     id="layer1"
     transform="translate(-107.95995,-112.48861)">
    <flowRoot
       xml:space="preserve"
       id="flowRoot906"
       style="font-style:normal;font-weight:normal;font-size:40px;line-height:1.25;font-family:sans-serif;letter-spacing:0px;word-spacing:0px;fill:#000000;fill-opacity:1;stroke:none"
       transform="matrix(0.26458333,0,0,0.26458333,0,87)"><flowRegion
         id="flowRegion908"><rect
           id="rect910"
           width="36"
           height="48"
           x="468"
           y="169.70079" /></flowRegion><flowPara
         id="flowPara912">1is</flowPara></flowRoot>
    <path
       sodipodi:nodetypes="cc"
       id="path3360-9"
       d="m 73.025,161.49187 v 0"
       style="fill:none;stroke:#000000;stroke-width:0.3;stroke-linecap:butt;stroke-linejoin:miter;stroke-miterlimit:4;stroke-dasharray:none;stroke-opacity:1" />
    <path
       id="path1531-5"
       style="fill:#000000;fill-opacity:0.304833;stroke:none;stroke-width:0.79831;stroke-miterlimit:4;stroke-dasharray:none;stroke-dashoffset:11.3386"
       d="m 276.02882,132.09469 h -12.4917 a 21.168142,21.079434 0 0 0 3.94662,8.62041 z" />
    <path
       d="m 234.5037,153.39706 a 21.168142,21.079433 0 0 1 7.73894,-12.36087"
       sodipodi:arc-type="arc"
       sodipodi:end="4.051869"
       sodipodi:start="3.3462976"
       sodipodi:ry="21.079433"
       sodipodi:rx="21.168142"
       sodipodi:cy="157.68205"
       sodipodi:cx="255.22987"
       sodipodi:type="arc"
       id="path1531-5-3"
       style="fill:none;fill-opacity:0.304833;stroke:#000000;stroke-width:1;stroke-miterlimit:4;stroke-dasharray:none;stroke-dashoffset:11.3386"
       sodipodi:open="true" />
    <path
       style="fill:none;stroke:#000000;stroke-width:0.3;stroke-linecap:butt;stroke-linejoin:miter;stroke-miterlimit:4;stroke-dasharray:1.2, 1.2;stroke-dashoffset:0;stroke-opacity:1"
       d="m 236.18017,166.11312 c -18.34345,0 -36.68762,0 -55.03248,0"
       id="path914"
       inkscape:path-effect="#path-effect916"
       inkscape:original-d="m 236.18017,166.11312 c -18.34345,6.8e-4 -36.68762,6.8e-4 -55.03248,0"
       sodipodi:nodetypes="cc" />
    <path
       inkscape:original-d="m 212.8972,170.32864 c -10.58249,6.9e-4 -21.16562,6.9e-4 -31.74951,0"
       inkscape:path-effect="#path-effect935"
       id="path914-8"
       d="m 212.8972,170.32864 c -10.58249,0 -21.16562,0 -31.74951,0"
       style="fill:none;stroke:#000000;stroke-width:0.3;stroke-linecap:butt;stroke-linejoin:miter;stroke-miterlimit:4;stroke-dasharray:1.2, 1.2;stroke-dashoffset:0;stroke-opacity:1"
       sodipodi:nodetypes="cc" />
    <path
       sodipodi:nodetypes="cc"
       inkscape:original-d="m 242.53006,140.81994 c -20.46008,7e-4 -40.92087,7e-4 -61.38237,0"
       inkscape:path-effect="#path-effect954"
       id="path914-0"
       d="m 242.53006,140.81994 c -20.46008,0 -40.92087,0 -61.38237,0"
       style="fill:none;stroke:#000000;stroke-width:0.3;stroke-linecap:butt;stroke-linejoin:miter;stroke-miterlimit:4;stroke-dasharray:1.2, 1.2;stroke-dashoffset:0;stroke-opacity:1" />
    <path
       sodipodi:open="true"
       style="fill:none;fill-opacity:0.304833;stroke:#000000;stroke-width:1;stroke-miterlimit:4;stroke-dasharray:none;stroke-dashoffset:11.3386;stroke-opacity:1"
       id="path1531-5-3-1"
       sodipodi:type="arc"
       sodipodi:cx="225.4677"
       sodipodi:cy="187.01791"
       sodipodi:rx="21.168142"
       sodipodi:ry="21.079433"
       sodipodi:start="4.0477507"
       sodipodi:end="4.5525297"
       sodipodi:arc-type="arc"
       d="m 212.41173,170.42545 a 21.168142,21.079433 0 0 1 9.68644,-4.2182" />
    <path
       id="path1007"
       style="fill:#000000;fill-opacity:0.304833;stroke:none;stroke-width:0.79831;stroke-miterlimit:4;stroke-dasharray:none;stroke-dashoffset:11.3386"
       d="m 225.25371,166.24108 a 21.168142,21.079434 0 0 0 -14.87707,6.2684 21.168142,21.079434 0 0 0 -4.32285,6.34661 h 23.68536 l 8.35904,-8.43105 a 21.168142,21.079434 0 0 0 -12.84448,-4.18396 z" />
    <path
       sodipodi:open="true"
       d="m 238.02433,170.38077 a 21.168142,21.079433 0 0 1 1.72673,-27.64187 21.168142,21.079433 0 0 1 27.73325,-2.08069"
       sodipodi:arc-type="arc"
       sodipodi:end="5.3539257"
       sodipodi:start="2.4869832"
       sodipodi:ry="21.079433"
       sodipodi:rx="21.168142"
       sodipodi:cy="157.54657"
       sodipodi:cx="254.81671"
       sodipodi:type="arc"
       id="path1531-5-2"
       style="fill:#000000;fill-opacity:0.304833;stroke:none;stroke-width:0.439071;stroke-miterlimit:4;stroke-dasharray:none;stroke-dashoffset:11.3386" />
    <path
       d="m 182.62848,166.12125 h -2.96039 a 2.1166338,14.754345 0 0 0 1.51884,4.20462 l 0.16675,-0.0672 a 2.1166338,14.754345 0 0 0 1.2748,-4.13744 z"
       style="fill:#000000;fill-opacity:0.304833;stroke:#000000;stroke-width:0.439071;stroke-miterlimit:4;stroke-dasharray:none;stroke-dashoffset:0;stroke-opacity:1"
       id="path1033" />
    <path
       d="m 179.05493,153.37681 a 2.1166338,14.754345 0 0 0 -0.022,2.76157 2.1166338,14.754345 0 0 0 0.63513,9.98287 h 2.96039 a 2.1166338,14.754345 0 0 0 0.62983,-11.69385 2.1166338,14.754345 0 0 0 -0.0174,-1.05059 z"
       style="fill:none;fill-opacity:0.304833;stroke:#000000;stroke-width:0.439071;stroke-miterlimit:4;stroke-dasharray:none;stroke-dashoffset:0;stroke-opacity:1"
       id="path2492" />
    <path
       d="m 181.12707,140.82031 a 2.1166338,14.754345 0 0 0 -0.10236,0.0242 2.1166338,14.754345 0 0 0 -1.96981,12.53236 h 4.18594 a 2.1166338,14.754345 0 0 0 -2.11381,-12.55651 z"
       style="fill:#000000;fill-opacity:0.304833;stroke:#000000;stroke-width:0.439071;stroke-miterlimit:4;stroke-dasharray:none;stroke-dashoffset:0;stroke-opacity:1"
       id="path2485" />
    <path
       sodipodi:nodetypes="cc"
       inkscape:path-effect="#path-effect2353"
       inkscape:original-d="m 242.40352,140.85294 c 3.8e-4,-8.66023 3.8e-4,-17.32084 0,-25.98182"
       id="path2351"
       d="m 242.40352,140.85294 c 0,-8.66023 0,-17.32084 0,-25.98182"
       style="fill:none;stroke:#000000;stroke-width:0.3;stroke-linecap:butt;stroke-linejoin:miter;stroke-miterlimit:4;stroke-dasharray:1.2, 1.2;stroke-dashoffset:0;stroke-opacity:1" />
    <path
       sodipodi:nodetypes="cc"
       style="fill:none;stroke:#000000;stroke-width:0.3;stroke-linecap:butt;stroke-linejoin:miter;stroke-miterlimit:4;stroke-dasharray:1.2, 1.2;stroke-dashoffset:0;stroke-opacity:1"
       d="m 212.54237,170.49808 c 0,-18.59356 0,-37.18748 0,-55.78176"
       id="path2351-7"
       inkscape:original-d="m 212.54237,170.49808 c 3.8e-4,-18.59356 3.8e-4,-37.18748 0,-55.78176"
       inkscape:path-effect="#path-effect2401" />
    <path
       inkscape:path-effect="#path-effect2420"
       inkscape:original-d="m 234.137,167.8418 c 2.6e-4,-17.55608 2.6e-4,-35.11257 0,-52.66948"
       id="path2351-7-4"
       d="m 234.137,167.8418 c 0,-17.55608 0,-35.11257 0,-52.66948"
       style="fill:none;stroke:#000000;stroke-width:0.3;stroke-linecap:butt;stroke-linejoin:miter;stroke-miterlimit:4;stroke-dasharray:1.2, 1.2;stroke-dashoffset:0;stroke-opacity:1"
       sodipodi:nodetypes="cc" />
    <path
       style="fill:none;stroke:#000000;stroke-width:0.3;stroke-linecap:butt;stroke-linejoin:miter;stroke-miterlimit:4;stroke-dasharray:1.2, 1.2;stroke-dashoffset:0;stroke-opacity:1"
       d="m 234.11983,153.38898 c -17.53616,0 -35.07298,0 -52.61046,0"
       id="path914-0-4"
       inkscape:path-effect="#path-effect2439"
       inkscape:original-d="m 234.11983,153.38898 c -17.53616,3.8e-4 -35.07298,3.8e-4 -52.61046,0"
       sodipodi:nodetypes="cc" />
    <path
       transform="rotate(90)"
       d="m 114.74364,-212.51734 a 2.119983,14.927421 0 0 1 -2.00462,-15.65856 2.119983,14.927421 0 0 1 2.21828,-14.15823 2.119983,14.927421 0 0 1 2.01685,15.58047 2.119983,14.927421 0 0 1 -2.20715,14.24417"
       sodipodi:arc-type="arc"
       sodipodi:open="true"
       sodipodi:end="1.6129376"
       sodipodi:start="1.6239686"
       sodipodi:ry="14.927421"
       sodipodi:rx="2.119983"
       sodipodi:cy="-227.42366"
       sodipodi:cx="114.85631"
       sodipodi:type="arc"
       id="path2495"
       style="fill:none;fill-opacity:0.304833;stroke:#000000;stroke-width:0.495332;stroke-miterlimit:4;stroke-dasharray:none;stroke-dashoffset:0;stroke-opacity:1" />
    <path
       inkscape:original-d="m 208.13478,137.02591 c 3.8e-4,-5.40954 3.8e-4,-10.81947 0,-16.22979"
       inkscape:path-effect="#path-effect2499"
       id="path2497"
       d="m 208.13478,137.02591 c 0,-5.40954 0,-10.81947 0,-16.22979"
       style="fill:none;stroke:#000000;stroke-width:0.3;stroke-linecap:butt;stroke-linejoin:miter;stroke-miterlimit:4;stroke-dasharray:none;stroke-opacity:1;marker-end:url(#marker1217)" />
    <path
       sodipodi:nodetypes="cc"
       style="fill:none;stroke:#000000;stroke-width:0.3;stroke-linecap:butt;stroke-linejoin:miter;stroke-miterlimit:4;stroke-dasharray:none;stroke-opacity:1;marker-end:url(#marker1217-9)"
       d="m 208.13478,137.02591 c -5.04427,0 -10.08891,0 -15.13395,0"
       id="path2497-4"
       inkscape:path-effect="#path-effect2546"
       inkscape:original-d="m 208.13478,137.02591 c -5.04427,3.9e-4 -10.08891,3.9e-4 -15.13395,0" />
    <g
       id="g1294"
       transform="translate(109.76526,39.154776)"
       inkscape:label="">
      <g
         id="g7527">
        <g
           style="fill:#000000;fill-opacity:1"
           id="g9499">
          <use
             xlink:href="#symbol2043"
             x="91.925003"
             y="81.962997"
             id="use7145"
             width="100%"
             height="100%" />
        </g>
      </g>
    </g>
    <g
       id="g1425"
       transform="translate(95.25413,54.058103)"
       inkscape:label="">
      <g
         id="g7675">
        <g
           style="fill:#000000;fill-opacity:1"
           id="g2106">
          <use
             xlink:href="#symbol2331"
             x="91.925003"
             y="81.962997"
             id="use2065"
             width="100%"
             height="100%" />
        </g>
      </g>
    </g>
    <path
       style="fill:none;stroke:#000000;stroke-width:0.264583px;stroke-linecap:butt;stroke-linejoin:miter;stroke-opacity:1"
       d="m 178.98669,148.65375 c -5.73104,-0.5084 -11.46237,-1.01683 -17.19398,-1.52528"
       id="path3339"
       inkscape:path-effect="#path-effect3341"
       inkscape:original-d="m 178.98669,148.65375 c -5.73106,-0.50816 -11.46239,-1.01659 -17.19398,-1.52528" />
    <path
       style="fill:none;stroke:#000000;stroke-width:0.264583px;stroke-linecap:butt;stroke-linejoin:miter;stroke-opacity:1"
       d="m 179.95731,168.48228 c -6.10084,-7.11765 -12.20193,-14.23559 -18.30326,-21.35381"
       id="path3626"
       inkscape:path-effect="#path-effect3345"
       inkscape:original-d="m 179.95731,168.48228 c -6.10082,-7.11767 -12.20191,-14.23561 -18.30326,-21.35381" />
    <path
       style="fill:none;stroke:#000000;stroke-width:0.264583px;stroke-linecap:butt;stroke-linejoin:miter;stroke-opacity:1"
       d="m 178.98669,159.60797 c -5.73115,1.66388 -11.46248,3.32782 -17.19398,4.9918"
       id="path3347"
       inkscape:path-effect="#path-effect3349"
       inkscape:original-d="m 178.98669,159.60797 c -5.73106,1.6642 -11.46239,3.32813 -17.19398,4.9918" />
    <g
       id="g4145"
       transform="translate(15.050569,85.469031)"
       inkscape:label="">
      <g
         id="g3089">
        <g
           style="fill:#000000;fill-opacity:1"
           id="g9230">
          <use
             xlink:href="#symbol3278"
             x="91.925003"
             y="81.962997"
             id="use8924"
             width="100%"
             height="100%" />
        </g>
        <g
           style="fill:#000000;fill-opacity:1"
           id="g7733">
          <use
             xlink:href="#symbol7724"
             x="95.800003"
             y="81.962997"
             id="use6387"
             width="100%"
             height="100%" />
        </g>
        <g
           style="fill:#000000;fill-opacity:1"
           id="g6830">
          <use
             xlink:href="#symbol1864"
             x="102.843"
             y="81.962997"
             id="use9914"
             width="100%"
             height="100%" />
        </g>
        <g
           style="fill:#000000;fill-opacity:1"
           id="g2647">
          <use
             xlink:href="#symbol8555"
             x="107.824"
             y="81.962997"
             id="use9138"
             width="100%"
             height="100%" />
        </g>
        <g
           style="fill:#000000;fill-opacity:1"
           id="g3211">
          <use
             xlink:href="#symbol3506"
             x="113.804"
             y="81.962997"
             id="use9888"
             width="100%"
             height="100%" />
        </g>
        <g
           style="fill:#000000;fill-opacity:1"
           id="g4085">
          <use
             xlink:href="#symbol597"
             x="117.678"
             y="81.962997"
             id="use1797"
             width="100%"
             height="100%" />
        </g>
        <g
           style="fill:#000000;fill-opacity:1"
           id="g4546">
          <use
             xlink:href="#symbol4943"
             x="123.728"
             y="78.348"
             id="use8782"
             width="100%"
             height="100%" />
        </g>
        <g
           style="fill:#000000;fill-opacity:1"
           id="g9567">
          <use
             xlink:href="#symbol4082"
             x="130.05672"
             y="78.348"
             id="use3803"
             width="100%"
             height="100%" />
          <use
             xlink:href="#symbol3309"
             x="134.45718"
             y="78.348"
             id="use8558"
             width="100%"
             height="100%" />
          <use
             xlink:href="#symbol6710"
             x="136.71252"
             y="78.348"
             id="use1850"
             width="100%"
             height="100%" />
          <use
             xlink:href="#symbol1554"
             x="139.82562"
             y="78.348"
             id="use9427"
             width="100%"
             height="100%" />
        </g>
        <g
           style="fill:#000000;fill-opacity:1"
           id="g5018">
          <use
             xlink:href="#symbol526"
             x="123.371"
             y="84.426003"
             id="use2794"
             width="100%"
             height="100%" />
        </g>
      </g>
    </g>
    <g
       id="g4579"
       transform="translate(15.411309,66.573849)"
       inkscape:label="">
      <g
         id="g8932">
        <g
           style="fill:#000000;fill-opacity:1"
           id="g5475">
          <use
             xlink:href="#symbol2706"
             x="91.925003"
             y="81.962997"
             id="use4671"
             width="100%"
             height="100%" />
        </g>
        <g
           style="fill:#000000;fill-opacity:1"
           id="g8549">
          <use
             xlink:href="#symbol5414"
             x="95.800003"
             y="81.962997"
             id="use798"
             width="100%"
             height="100%" />
        </g>
        <g
           style="fill:#000000;fill-opacity:1"
           id="g9541">
          <use
             xlink:href="#symbol7055"
             x="102.843"
             y="81.962997"
             id="use1743"
             width="100%"
             height="100%" />
        </g>
        <g
           style="fill:#000000;fill-opacity:1"
           id="g5438">
          <use
             xlink:href="#symbol3626"
             x="107.824"
             y="81.962997"
             id="use9486"
             width="100%"
             height="100%" />
        </g>
        <g
           style="fill:#000000;fill-opacity:1"
           id="g4622">
          <use
             xlink:href="#symbol5821"
             x="113.804"
             y="81.962997"
             id="use7837"
             width="100%"
             height="100%" />
        </g>
        <g
           style="fill:#000000;fill-opacity:1"
           id="g7856">
          <use
             xlink:href="#symbol4493"
             x="117.678"
             y="81.962997"
             id="use2418"
             width="100%"
             height="100%" />
        </g>
        <g
           style="fill:#000000;fill-opacity:1"
           id="g9471">
          <use
             xlink:href="#symbol2072"
             x="123.728"
             y="78.348"
             id="use7924"
             width="100%"
             height="100%" />
          <use
             xlink:href="#symbol5000"
             x="126.88434"
             y="78.348"
             id="use8060"
             width="100%"
             height="100%" />
          <use
             xlink:href="#symbol8157"
             x="129.13966"
             y="78.348"
             id="use6170"
             width="100%"
             height="100%" />
          <use
             xlink:href="#symbol7421"
             x="133.54013"
             y="78.348"
             id="use721"
             width="100%"
             height="100%" />
          <use
             xlink:href="#symbol2098"
             x="137.51172"
             y="78.348"
             id="use5473"
             width="100%"
             height="100%" />
          <use
             xlink:href="#symbol1826"
             x="139.76704"
             y="78.348"
             id="use7968"
             width="100%"
             height="100%" />
        </g>
        <g
           style="fill:#000000;fill-opacity:1"
           id="g323">
          <use
             xlink:href="#symbol2051"
             x="123.371"
             y="84.426003"
             id="use7371"
             width="100%"
             height="100%" />
        </g>
      </g>
    </g>
    <path
       inkscape:original-d="m 267.28829,140.43235 c -4.28117,-4.24849 -8.56261,-8.49725 -12.84431,-12.74627"
       inkscape:path-effect="#path-effect3177"
       id="path3175"
       d="m 267.28829,140.43235 c -4.28117,-4.24849 -8.56261,-8.49725 -12.84431,-12.74627"
       style="fill:none;stroke:#000000;stroke-width:0.3;stroke-linecap:butt;stroke-linejoin:miter;stroke-opacity:1;marker-end:url(#marker3181);stroke-miterlimit:4;stroke-dasharray:none" />
    <g
       inkscape:label=""
       transform="translate(163.60287,43.432347)"
       id="g3425">
      <g
         id="g9785">
        <g
           id="g5163"
           style="fill:#000000;fill-opacity:1">
          <use
             height="100%"
             width="100%"
             id="use3579"
             y="81.962997"
             x="91.925003"
             xlink:href="#symbol3120" />
        </g>
      </g>
    </g>
  </g>
</svg>
